<?xml version="1.0" encoding="utf-8" standalone="no"?>
<!DOCTYPE svg PUBLIC "-//W3C//DTD SVG 1.1//EN"
  "http://www.w3.org/Graphics/SVG/1.1/DTD/svg11.dtd">
<svg xmlns:xlink="http://www.w3.org/1999/xlink" width="852.981804pt" height="421.808864pt" viewBox="0 0 852.981804 421.808864" xmlns="http://www.w3.org/2000/svg" version="1.1">
 <metadata>
  <rdf:RDF xmlns:dc="http://purl.org/dc/elements/1.1/" xmlns:cc="http://creativecommons.org/ns#" xmlns:rdf="http://www.w3.org/1999/02/22-rdf-syntax-ns#">
   <cc:Work>
    <dc:type rdf:resource="http://purl.org/dc/dcmitype/StillImage"/>
    <dc:date>2025-08-24T20:07:04.355206</dc:date>
    <dc:format>image/svg+xml</dc:format>
    <dc:creator>
     <cc:Agent>
      <dc:title>Matplotlib v3.10.1, https://matplotlib.org/</dc:title>
     </cc:Agent>
    </dc:creator>
   </cc:Work>
  </rdf:RDF>
 </metadata>
 <defs>
  <style type="text/css">*{stroke-linejoin: round; stroke-linecap: butt}</style>
 </defs>
 <g id="figure_1">
  <g id="patch_1">
   <path d="M 0 421.808864 
L 852.981804 421.808864 
L 852.981804 0 
L 0 0 
z
" style="fill: #ffffff"/>
  </g>
  <g id="axes_1">
   <g id="patch_2">
    <path d="M 55.074531 377.910895 
L 845.781804 377.910895 
L 845.781804 24.119531 
L 55.074531 24.119531 
z
" style="fill: #ffffff"/>
   </g>
   <g id="matplotlib.axis_1">
    <g id="xtick_1">
     <g id="text_1">
      <!-- 50 -->
      <g style="fill: #262626" transform="translate(161.798873 395.284489) scale(0.11 -0.11)">
       <defs>
        <path id="ArialMT-35" d="M 266 1200 
L 856 1250 
Q 922 819 1161 601 
Q 1400 384 1738 384 
Q 2144 384 2425 690 
Q 2706 997 2706 1503 
Q 2706 1984 2436 2262 
Q 2166 2541 1728 2541 
Q 1456 2541 1237 2417 
Q 1019 2294 894 2097 
L 366 2166 
L 809 4519 
L 3088 4519 
L 3088 3981 
L 1259 3981 
L 1013 2750 
Q 1425 3038 1878 3038 
Q 2478 3038 2890 2622 
Q 3303 2206 3303 1553 
Q 3303 931 2941 478 
Q 2500 -78 1738 -78 
Q 1113 -78 717 272 
Q 322 622 266 1200 
z
" transform="scale(0.015625)"/>
        <path id="ArialMT-30" d="M 266 2259 
Q 266 3072 433 3567 
Q 600 4063 929 4331 
Q 1259 4600 1759 4600 
Q 2128 4600 2406 4451 
Q 2684 4303 2865 4023 
Q 3047 3744 3150 3342 
Q 3253 2941 3253 2259 
Q 3253 1453 3087 958 
Q 2922 463 2592 192 
Q 2263 -78 1759 -78 
Q 1097 -78 719 397 
Q 266 969 266 2259 
z
M 844 2259 
Q 844 1131 1108 757 
Q 1372 384 1759 384 
Q 2147 384 2411 759 
Q 2675 1134 2675 2259 
Q 2675 3391 2411 3762 
Q 2147 4134 1753 4134 
Q 1366 4134 1134 3806 
Q 844 3388 844 2259 
z
" transform="scale(0.015625)"/>
       </defs>
       <use xlink:href="#ArialMT-35"/>
       <use xlink:href="#ArialMT-30" transform="translate(55.615234 0)"/>
      </g>
     </g>
    </g>
    <g id="xtick_2">
     <g id="text_2">
      <!-- 60 -->
      <g style="fill: #262626" transform="translate(318.750131 395.284489) scale(0.11 -0.11)">
       <defs>
        <path id="ArialMT-36" d="M 3184 3459 
L 2625 3416 
Q 2550 3747 2413 3897 
Q 2184 4138 1850 4138 
Q 1581 4138 1378 3988 
Q 1113 3794 959 3422 
Q 806 3050 800 2363 
Q 1003 2672 1297 2822 
Q 1591 2972 1913 2972 
Q 2475 2972 2870 2558 
Q 3266 2144 3266 1488 
Q 3266 1056 3080 686 
Q 2894 316 2569 119 
Q 2244 -78 1831 -78 
Q 1128 -78 684 439 
Q 241 956 241 2144 
Q 241 3472 731 4075 
Q 1159 4600 1884 4600 
Q 2425 4600 2770 4297 
Q 3116 3994 3184 3459 
z
M 888 1484 
Q 888 1194 1011 928 
Q 1134 663 1356 523 
Q 1578 384 1822 384 
Q 2178 384 2434 671 
Q 2691 959 2691 1453 
Q 2691 1928 2437 2201 
Q 2184 2475 1800 2475 
Q 1419 2475 1153 2201 
Q 888 1928 888 1484 
z
" transform="scale(0.015625)"/>
       </defs>
       <use xlink:href="#ArialMT-36"/>
       <use xlink:href="#ArialMT-30" transform="translate(55.615234 0)"/>
      </g>
     </g>
    </g>
    <g id="xtick_3">
     <g id="text_3">
      <!-- 70 -->
      <g style="fill: #262626" transform="translate(475.701388 395.284489) scale(0.11 -0.11)">
       <defs>
        <path id="ArialMT-37" d="M 303 3981 
L 303 4522 
L 3269 4522 
L 3269 4084 
Q 2831 3619 2401 2847 
Q 1972 2075 1738 1259 
Q 1569 684 1522 0 
L 944 0 
Q 953 541 1156 1306 
Q 1359 2072 1739 2783 
Q 2119 3494 2547 3981 
L 303 3981 
z
" transform="scale(0.015625)"/>
       </defs>
       <use xlink:href="#ArialMT-37"/>
       <use xlink:href="#ArialMT-30" transform="translate(55.615234 0)"/>
      </g>
     </g>
    </g>
    <g id="xtick_4">
     <g id="text_4">
      <!-- 80 -->
      <g style="fill: #262626" transform="translate(632.652645 395.284489) scale(0.11 -0.11)">
       <defs>
        <path id="ArialMT-38" d="M 1131 2484 
Q 781 2613 612 2850 
Q 444 3088 444 3419 
Q 444 3919 803 4259 
Q 1163 4600 1759 4600 
Q 2359 4600 2725 4251 
Q 3091 3903 3091 3403 
Q 3091 3084 2923 2848 
Q 2756 2613 2416 2484 
Q 2838 2347 3058 2040 
Q 3278 1734 3278 1309 
Q 3278 722 2862 322 
Q 2447 -78 1769 -78 
Q 1091 -78 675 323 
Q 259 725 259 1325 
Q 259 1772 486 2073 
Q 713 2375 1131 2484 
z
M 1019 3438 
Q 1019 3113 1228 2906 
Q 1438 2700 1772 2700 
Q 2097 2700 2305 2904 
Q 2513 3109 2513 3406 
Q 2513 3716 2298 3927 
Q 2084 4138 1766 4138 
Q 1444 4138 1231 3931 
Q 1019 3725 1019 3438 
z
M 838 1322 
Q 838 1081 952 856 
Q 1066 631 1291 507 
Q 1516 384 1775 384 
Q 2178 384 2440 643 
Q 2703 903 2703 1303 
Q 2703 1709 2433 1975 
Q 2163 2241 1756 2241 
Q 1359 2241 1098 1978 
Q 838 1716 838 1322 
z
" transform="scale(0.015625)"/>
       </defs>
       <use xlink:href="#ArialMT-38"/>
       <use xlink:href="#ArialMT-30" transform="translate(55.615234 0)"/>
      </g>
     </g>
    </g>
    <g id="xtick_5">
     <g id="text_5">
      <!-- 90 -->
      <g style="fill: #262626" transform="translate(789.603902 395.284489) scale(0.11 -0.11)">
       <defs>
        <path id="ArialMT-39" d="M 350 1059 
L 891 1109 
Q 959 728 1153 556 
Q 1347 384 1650 384 
Q 1909 384 2104 503 
Q 2300 622 2425 820 
Q 2550 1019 2634 1356 
Q 2719 1694 2719 2044 
Q 2719 2081 2716 2156 
Q 2547 1888 2255 1720 
Q 1963 1553 1622 1553 
Q 1053 1553 659 1965 
Q 266 2378 266 3053 
Q 266 3750 677 4175 
Q 1088 4600 1706 4600 
Q 2153 4600 2523 4359 
Q 2894 4119 3086 3673 
Q 3278 3228 3278 2384 
Q 3278 1506 3087 986 
Q 2897 466 2520 194 
Q 2144 -78 1638 -78 
Q 1100 -78 759 220 
Q 419 519 350 1059 
z
M 2653 3081 
Q 2653 3566 2395 3850 
Q 2138 4134 1775 4134 
Q 1400 4134 1122 3828 
Q 844 3522 844 3034 
Q 844 2597 1108 2323 
Q 1372 2050 1759 2050 
Q 2150 2050 2401 2323 
Q 2653 2597 2653 3081 
z
" transform="scale(0.015625)"/>
       </defs>
       <use xlink:href="#ArialMT-39"/>
       <use xlink:href="#ArialMT-30" transform="translate(55.615234 0)"/>
      </g>
     </g>
    </g>
    <g id="text_6">
     <!-- Average (GPA) -->
     <g style="fill: #262626" transform="translate(403.606918 411.662301) scale(0.14 -0.14)">
      <defs>
       <path id="ArialMT-41" d="M -9 0 
L 1750 4581 
L 2403 4581 
L 4278 0 
L 3588 0 
L 3053 1388 
L 1138 1388 
L 634 0 
L -9 0 
z
M 1313 1881 
L 2866 1881 
L 2388 3150 
Q 2169 3728 2063 4100 
Q 1975 3659 1816 3225 
L 1313 1881 
z
" transform="scale(0.015625)"/>
       <path id="ArialMT-76" d="M 1344 0 
L 81 3319 
L 675 3319 
L 1388 1331 
Q 1503 1009 1600 663 
Q 1675 925 1809 1294 
L 2547 3319 
L 3125 3319 
L 1869 0 
L 1344 0 
z
" transform="scale(0.015625)"/>
       <path id="ArialMT-65" d="M 2694 1069 
L 3275 997 
Q 3138 488 2766 206 
Q 2394 -75 1816 -75 
Q 1088 -75 661 373 
Q 234 822 234 1631 
Q 234 2469 665 2931 
Q 1097 3394 1784 3394 
Q 2450 3394 2872 2941 
Q 3294 2488 3294 1666 
Q 3294 1616 3291 1516 
L 816 1516 
Q 847 969 1125 678 
Q 1403 388 1819 388 
Q 2128 388 2347 550 
Q 2566 713 2694 1069 
z
M 847 1978 
L 2700 1978 
Q 2663 2397 2488 2606 
Q 2219 2931 1791 2931 
Q 1403 2931 1139 2672 
Q 875 2413 847 1978 
z
" transform="scale(0.015625)"/>
       <path id="ArialMT-72" d="M 416 0 
L 416 3319 
L 922 3319 
L 922 2816 
Q 1116 3169 1280 3281 
Q 1444 3394 1641 3394 
Q 1925 3394 2219 3213 
L 2025 2691 
Q 1819 2813 1613 2813 
Q 1428 2813 1281 2702 
Q 1134 2591 1072 2394 
Q 978 2094 978 1738 
L 978 0 
L 416 0 
z
" transform="scale(0.015625)"/>
       <path id="ArialMT-61" d="M 2588 409 
Q 2275 144 1986 34 
Q 1697 -75 1366 -75 
Q 819 -75 525 192 
Q 231 459 231 875 
Q 231 1119 342 1320 
Q 453 1522 633 1644 
Q 813 1766 1038 1828 
Q 1203 1872 1538 1913 
Q 2219 1994 2541 2106 
Q 2544 2222 2544 2253 
Q 2544 2597 2384 2738 
Q 2169 2928 1744 2928 
Q 1347 2928 1158 2789 
Q 969 2650 878 2297 
L 328 2372 
Q 403 2725 575 2942 
Q 747 3159 1072 3276 
Q 1397 3394 1825 3394 
Q 2250 3394 2515 3294 
Q 2781 3194 2906 3042 
Q 3031 2891 3081 2659 
Q 3109 2516 3109 2141 
L 3109 1391 
Q 3109 606 3145 398 
Q 3181 191 3288 0 
L 2700 0 
Q 2613 175 2588 409 
z
M 2541 1666 
Q 2234 1541 1622 1453 
Q 1275 1403 1131 1340 
Q 988 1278 909 1158 
Q 831 1038 831 891 
Q 831 666 1001 516 
Q 1172 366 1500 366 
Q 1825 366 2078 508 
Q 2331 650 2450 897 
Q 2541 1088 2541 1459 
L 2541 1666 
z
" transform="scale(0.015625)"/>
       <path id="ArialMT-67" d="M 319 -275 
L 866 -356 
Q 900 -609 1056 -725 
Q 1266 -881 1628 -881 
Q 2019 -881 2231 -725 
Q 2444 -569 2519 -288 
Q 2563 -116 2559 434 
Q 2191 0 1641 0 
Q 956 0 581 494 
Q 206 988 206 1678 
Q 206 2153 378 2554 
Q 550 2956 876 3175 
Q 1203 3394 1644 3394 
Q 2231 3394 2613 2919 
L 2613 3319 
L 3131 3319 
L 3131 450 
Q 3131 -325 2973 -648 
Q 2816 -972 2473 -1159 
Q 2131 -1347 1631 -1347 
Q 1038 -1347 672 -1080 
Q 306 -813 319 -275 
z
M 784 1719 
Q 784 1066 1043 766 
Q 1303 466 1694 466 
Q 2081 466 2343 764 
Q 2606 1063 2606 1700 
Q 2606 2309 2336 2618 
Q 2066 2928 1684 2928 
Q 1309 2928 1046 2623 
Q 784 2319 784 1719 
z
" transform="scale(0.015625)"/>
       <path id="ArialMT-20" transform="scale(0.015625)"/>
       <path id="ArialMT-28" d="M 1497 -1347 
Q 1031 -759 709 28 
Q 388 816 388 1659 
Q 388 2403 628 3084 
Q 909 3875 1497 4659 
L 1900 4659 
Q 1522 4009 1400 3731 
Q 1209 3300 1100 2831 
Q 966 2247 966 1656 
Q 966 153 1900 -1347 
L 1497 -1347 
z
" transform="scale(0.015625)"/>
       <path id="ArialMT-47" d="M 2638 1797 
L 2638 2334 
L 4578 2338 
L 4578 638 
Q 4131 281 3656 101 
Q 3181 -78 2681 -78 
Q 2006 -78 1454 211 
Q 903 500 622 1047 
Q 341 1594 341 2269 
Q 341 2938 620 3517 
Q 900 4097 1425 4378 
Q 1950 4659 2634 4659 
Q 3131 4659 3532 4498 
Q 3934 4338 4162 4050 
Q 4391 3763 4509 3300 
L 3963 3150 
Q 3859 3500 3706 3700 
Q 3553 3900 3268 4020 
Q 2984 4141 2638 4141 
Q 2222 4141 1919 4014 
Q 1616 3888 1430 3681 
Q 1244 3475 1141 3228 
Q 966 2803 966 2306 
Q 966 1694 1177 1281 
Q 1388 869 1791 669 
Q 2194 469 2647 469 
Q 3041 469 3416 620 
Q 3791 772 3984 944 
L 3984 1797 
L 2638 1797 
z
" transform="scale(0.015625)"/>
       <path id="ArialMT-50" d="M 494 0 
L 494 4581 
L 2222 4581 
Q 2678 4581 2919 4538 
Q 3256 4481 3484 4323 
Q 3713 4166 3852 3881 
Q 3991 3597 3991 3256 
Q 3991 2672 3619 2267 
Q 3247 1863 2275 1863 
L 1100 1863 
L 1100 0 
L 494 0 
z
M 1100 2403 
L 2284 2403 
Q 2872 2403 3119 2622 
Q 3366 2841 3366 3238 
Q 3366 3525 3220 3729 
Q 3075 3934 2838 4000 
Q 2684 4041 2272 4041 
L 1100 4041 
L 1100 2403 
z
" transform="scale(0.015625)"/>
       <path id="ArialMT-29" d="M 791 -1347 
L 388 -1347 
Q 1322 153 1322 1656 
Q 1322 2244 1188 2822 
Q 1081 3291 891 3722 
Q 769 4003 388 4659 
L 791 4659 
Q 1378 3875 1659 3084 
Q 1900 2403 1900 1659 
Q 1900 816 1576 28 
Q 1253 -759 791 -1347 
z
" transform="scale(0.015625)"/>
      </defs>
      <use xlink:href="#ArialMT-41"/>
      <use xlink:href="#ArialMT-76" transform="translate(64.949219 0)"/>
      <use xlink:href="#ArialMT-65" transform="translate(114.949219 0)"/>
      <use xlink:href="#ArialMT-72" transform="translate(170.564453 0)"/>
      <use xlink:href="#ArialMT-61" transform="translate(203.865234 0)"/>
      <use xlink:href="#ArialMT-67" transform="translate(259.480469 0)"/>
      <use xlink:href="#ArialMT-65" transform="translate(315.095703 0)"/>
      <use xlink:href="#ArialMT-20" transform="translate(370.710938 0)"/>
      <use xlink:href="#ArialMT-28" transform="translate(398.494141 0)"/>
      <use xlink:href="#ArialMT-47" transform="translate(431.794922 0)"/>
      <use xlink:href="#ArialMT-50" transform="translate(509.578125 0)"/>
      <use xlink:href="#ArialMT-41" transform="translate(568.902344 0)"/>
      <use xlink:href="#ArialMT-29" transform="translate(635.601562 0)"/>
     </g>
    </g>
   </g>
   <g id="matplotlib.axis_2">
    <g id="ytick_1">
     <g id="text_7">
      <!-- 0.00 -->
      <g style="fill: #262626" transform="translate(24.1675 381.847692) scale(0.11 -0.11)">
       <defs>
        <path id="ArialMT-2e" d="M 581 0 
L 581 641 
L 1222 641 
L 1222 0 
L 581 0 
z
" transform="scale(0.015625)"/>
       </defs>
       <use xlink:href="#ArialMT-30"/>
       <use xlink:href="#ArialMT-2e" transform="translate(55.615234 0)"/>
       <use xlink:href="#ArialMT-30" transform="translate(83.398438 0)"/>
       <use xlink:href="#ArialMT-30" transform="translate(139.013672 0)"/>
      </g>
     </g>
    </g>
    <g id="ytick_2">
     <g id="text_8">
      <!-- 0.01 -->
      <g style="fill: #262626" transform="translate(24.1675 322.364528) scale(0.11 -0.11)">
       <defs>
        <path id="ArialMT-31" d="M 2384 0 
L 1822 0 
L 1822 3584 
Q 1619 3391 1289 3197 
Q 959 3003 697 2906 
L 697 3450 
Q 1169 3672 1522 3987 
Q 1875 4303 2022 4600 
L 2384 4600 
L 2384 0 
z
" transform="scale(0.015625)"/>
       </defs>
       <use xlink:href="#ArialMT-30"/>
       <use xlink:href="#ArialMT-2e" transform="translate(55.615234 0)"/>
       <use xlink:href="#ArialMT-30" transform="translate(83.398438 0)"/>
       <use xlink:href="#ArialMT-31" transform="translate(139.013672 0)"/>
      </g>
     </g>
    </g>
    <g id="ytick_3">
     <g id="text_9">
      <!-- 0.02 -->
      <g style="fill: #262626" transform="translate(24.1675 262.881365) scale(0.11 -0.11)">
       <defs>
        <path id="ArialMT-32" d="M 3222 541 
L 3222 0 
L 194 0 
Q 188 203 259 391 
Q 375 700 629 1000 
Q 884 1300 1366 1694 
Q 2113 2306 2375 2664 
Q 2638 3022 2638 3341 
Q 2638 3675 2398 3904 
Q 2159 4134 1775 4134 
Q 1369 4134 1125 3890 
Q 881 3647 878 3216 
L 300 3275 
Q 359 3922 746 4261 
Q 1134 4600 1788 4600 
Q 2447 4600 2831 4234 
Q 3216 3869 3216 3328 
Q 3216 3053 3103 2787 
Q 2991 2522 2730 2228 
Q 2469 1934 1863 1422 
Q 1356 997 1212 845 
Q 1069 694 975 541 
L 3222 541 
z
" transform="scale(0.015625)"/>
       </defs>
       <use xlink:href="#ArialMT-30"/>
       <use xlink:href="#ArialMT-2e" transform="translate(55.615234 0)"/>
       <use xlink:href="#ArialMT-30" transform="translate(83.398438 0)"/>
       <use xlink:href="#ArialMT-32" transform="translate(139.013672 0)"/>
      </g>
     </g>
    </g>
    <g id="ytick_4">
     <g id="text_10">
      <!-- 0.03 -->
      <g style="fill: #262626" transform="translate(24.1675 203.398201) scale(0.11 -0.11)">
       <defs>
        <path id="ArialMT-33" d="M 269 1209 
L 831 1284 
Q 928 806 1161 595 
Q 1394 384 1728 384 
Q 2125 384 2398 659 
Q 2672 934 2672 1341 
Q 2672 1728 2419 1979 
Q 2166 2231 1775 2231 
Q 1616 2231 1378 2169 
L 1441 2663 
Q 1497 2656 1531 2656 
Q 1891 2656 2178 2843 
Q 2466 3031 2466 3422 
Q 2466 3731 2256 3934 
Q 2047 4138 1716 4138 
Q 1388 4138 1169 3931 
Q 950 3725 888 3313 
L 325 3413 
Q 428 3978 793 4289 
Q 1159 4600 1703 4600 
Q 2078 4600 2393 4439 
Q 2709 4278 2876 4000 
Q 3044 3722 3044 3409 
Q 3044 3113 2884 2869 
Q 2725 2625 2413 2481 
Q 2819 2388 3044 2092 
Q 3269 1797 3269 1353 
Q 3269 753 2831 336 
Q 2394 -81 1725 -81 
Q 1122 -81 723 278 
Q 325 638 269 1209 
z
" transform="scale(0.015625)"/>
       </defs>
       <use xlink:href="#ArialMT-30"/>
       <use xlink:href="#ArialMT-2e" transform="translate(55.615234 0)"/>
       <use xlink:href="#ArialMT-30" transform="translate(83.398438 0)"/>
       <use xlink:href="#ArialMT-33" transform="translate(139.013672 0)"/>
      </g>
     </g>
    </g>
    <g id="ytick_5">
     <g id="text_11">
      <!-- 0.04 -->
      <g style="fill: #262626" transform="translate(24.1675 143.915038) scale(0.11 -0.11)">
       <defs>
        <path id="ArialMT-34" d="M 2069 0 
L 2069 1097 
L 81 1097 
L 81 1613 
L 2172 4581 
L 2631 4581 
L 2631 1613 
L 3250 1613 
L 3250 1097 
L 2631 1097 
L 2631 0 
L 2069 0 
z
M 2069 1613 
L 2069 3678 
L 634 1613 
L 2069 1613 
z
" transform="scale(0.015625)"/>
       </defs>
       <use xlink:href="#ArialMT-30"/>
       <use xlink:href="#ArialMT-2e" transform="translate(55.615234 0)"/>
       <use xlink:href="#ArialMT-30" transform="translate(83.398438 0)"/>
       <use xlink:href="#ArialMT-34" transform="translate(139.013672 0)"/>
      </g>
     </g>
    </g>
    <g id="ytick_6">
     <g id="text_12">
      <!-- 0.05 -->
      <g style="fill: #262626" transform="translate(24.1675 84.431874) scale(0.11 -0.11)">
       <use xlink:href="#ArialMT-30"/>
       <use xlink:href="#ArialMT-2e" transform="translate(55.615234 0)"/>
       <use xlink:href="#ArialMT-30" transform="translate(83.398438 0)"/>
       <use xlink:href="#ArialMT-35" transform="translate(139.013672 0)"/>
      </g>
     </g>
    </g>
    <g id="text_13">
     <!-- Density -->
     <g style="fill: #262626" transform="translate(17.220937 224.355838) rotate(-90) scale(0.14 -0.14)">
      <defs>
       <path id="ArialMT-44" d="M 494 0 
L 494 4581 
L 2072 4581 
Q 2606 4581 2888 4516 
Q 3281 4425 3559 4188 
Q 3922 3881 4101 3404 
Q 4281 2928 4281 2316 
Q 4281 1794 4159 1391 
Q 4038 988 3847 723 
Q 3656 459 3429 307 
Q 3203 156 2883 78 
Q 2563 0 2147 0 
L 494 0 
z
M 1100 541 
L 2078 541 
Q 2531 541 2789 625 
Q 3047 709 3200 863 
Q 3416 1078 3536 1442 
Q 3656 1806 3656 2325 
Q 3656 3044 3420 3430 
Q 3184 3816 2847 3947 
Q 2603 4041 2063 4041 
L 1100 4041 
L 1100 541 
z
" transform="scale(0.015625)"/>
       <path id="ArialMT-6e" d="M 422 0 
L 422 3319 
L 928 3319 
L 928 2847 
Q 1294 3394 1984 3394 
Q 2284 3394 2536 3286 
Q 2788 3178 2913 3003 
Q 3038 2828 3088 2588 
Q 3119 2431 3119 2041 
L 3119 0 
L 2556 0 
L 2556 2019 
Q 2556 2363 2490 2533 
Q 2425 2703 2258 2804 
Q 2091 2906 1866 2906 
Q 1506 2906 1245 2678 
Q 984 2450 984 1813 
L 984 0 
L 422 0 
z
" transform="scale(0.015625)"/>
       <path id="ArialMT-73" d="M 197 991 
L 753 1078 
Q 800 744 1014 566 
Q 1228 388 1613 388 
Q 2000 388 2187 545 
Q 2375 703 2375 916 
Q 2375 1106 2209 1216 
Q 2094 1291 1634 1406 
Q 1016 1563 777 1677 
Q 538 1791 414 1992 
Q 291 2194 291 2438 
Q 291 2659 392 2848 
Q 494 3038 669 3163 
Q 800 3259 1026 3326 
Q 1253 3394 1513 3394 
Q 1903 3394 2198 3281 
Q 2494 3169 2634 2976 
Q 2775 2784 2828 2463 
L 2278 2388 
Q 2241 2644 2061 2787 
Q 1881 2931 1553 2931 
Q 1166 2931 1000 2803 
Q 834 2675 834 2503 
Q 834 2394 903 2306 
Q 972 2216 1119 2156 
Q 1203 2125 1616 2013 
Q 2213 1853 2448 1751 
Q 2684 1650 2818 1456 
Q 2953 1263 2953 975 
Q 2953 694 2789 445 
Q 2625 197 2315 61 
Q 2006 -75 1616 -75 
Q 969 -75 630 194 
Q 291 463 197 991 
z
" transform="scale(0.015625)"/>
       <path id="ArialMT-69" d="M 425 3934 
L 425 4581 
L 988 4581 
L 988 3934 
L 425 3934 
z
M 425 0 
L 425 3319 
L 988 3319 
L 988 0 
L 425 0 
z
" transform="scale(0.015625)"/>
       <path id="ArialMT-74" d="M 1650 503 
L 1731 6 
Q 1494 -44 1306 -44 
Q 1000 -44 831 53 
Q 663 150 594 308 
Q 525 466 525 972 
L 525 2881 
L 113 2881 
L 113 3319 
L 525 3319 
L 525 4141 
L 1084 4478 
L 1084 3319 
L 1650 3319 
L 1650 2881 
L 1084 2881 
L 1084 941 
Q 1084 700 1114 631 
Q 1144 563 1211 522 
Q 1278 481 1403 481 
Q 1497 481 1650 503 
z
" transform="scale(0.015625)"/>
       <path id="ArialMT-79" d="M 397 -1278 
L 334 -750 
Q 519 -800 656 -800 
Q 844 -800 956 -737 
Q 1069 -675 1141 -563 
Q 1194 -478 1313 -144 
Q 1328 -97 1363 -6 
L 103 3319 
L 709 3319 
L 1400 1397 
Q 1534 1031 1641 628 
Q 1738 1016 1872 1384 
L 2581 3319 
L 3144 3319 
L 1881 -56 
Q 1678 -603 1566 -809 
Q 1416 -1088 1222 -1217 
Q 1028 -1347 759 -1347 
Q 597 -1347 397 -1278 
z
" transform="scale(0.015625)"/>
      </defs>
      <use xlink:href="#ArialMT-44"/>
      <use xlink:href="#ArialMT-65" transform="translate(72.216797 0)"/>
      <use xlink:href="#ArialMT-6e" transform="translate(127.832031 0)"/>
      <use xlink:href="#ArialMT-73" transform="translate(183.447266 0)"/>
      <use xlink:href="#ArialMT-69" transform="translate(233.447266 0)"/>
      <use xlink:href="#ArialMT-74" transform="translate(255.664062 0)"/>
      <use xlink:href="#ArialMT-79" transform="translate(283.447266 0)"/>
     </g>
    </g>
   </g>
   <g id="FillBetweenPolyCollection_1">
    <defs>
     <path id="mf281891e0b" d="M 113.326667 -44.475118 
L 113.326667 -43.897969 
L 116.714622 -43.897969 
L 120.102577 -43.897969 
L 123.490532 -43.897969 
L 126.878486 -43.897969 
L 130.266441 -43.897969 
L 133.654396 -43.897969 
L 137.042351 -43.897969 
L 140.430306 -43.897969 
L 143.81826 -43.897969 
L 147.206215 -43.897969 
L 150.59417 -43.897969 
L 153.982125 -43.897969 
L 157.370079 -43.897969 
L 160.758034 -43.897969 
L 164.145989 -43.897969 
L 167.533944 -43.897969 
L 170.921899 -43.897969 
L 174.309853 -43.897969 
L 177.697808 -43.897969 
L 181.085763 -43.897969 
L 184.473718 -43.897969 
L 187.861672 -43.897969 
L 191.249627 -43.897969 
L 194.637582 -43.897969 
L 198.025537 -43.897969 
L 201.413492 -43.897969 
L 204.801446 -43.897969 
L 208.189401 -43.897969 
L 211.577356 -43.897969 
L 214.965311 -43.897969 
L 218.353265 -43.897969 
L 221.74122 -43.897969 
L 225.129175 -43.897969 
L 228.51713 -43.897969 
L 231.905085 -43.897969 
L 235.293039 -43.897969 
L 238.680994 -43.897969 
L 242.068949 -43.897969 
L 245.456904 -43.897969 
L 248.844858 -43.897969 
L 252.232813 -43.897969 
L 255.620768 -43.897969 
L 259.008723 -43.897969 
L 262.396678 -43.897969 
L 265.784632 -43.897969 
L 269.172587 -43.897969 
L 272.560542 -43.897969 
L 275.948497 -43.897969 
L 279.336451 -43.897969 
L 282.724406 -43.897969 
L 286.112361 -43.897969 
L 289.500316 -43.897969 
L 292.88827 -43.897969 
L 296.276225 -43.897969 
L 299.66418 -43.897969 
L 303.052135 -43.897969 
L 306.44009 -43.897969 
L 309.828044 -43.897969 
L 313.215999 -43.897969 
L 316.603954 -43.897969 
L 319.991909 -43.897969 
L 323.379863 -43.897969 
L 326.767818 -43.897969 
L 330.155773 -43.897969 
L 333.543728 -43.897969 
L 336.931683 -43.897969 
L 340.319637 -43.897969 
L 343.707592 -43.897969 
L 347.095547 -43.897969 
L 350.483502 -43.897969 
L 353.871456 -43.897969 
L 357.259411 -43.897969 
L 360.647366 -43.897969 
L 364.035321 -43.897969 
L 367.423276 -43.897969 
L 370.81123 -43.897969 
L 374.199185 -43.897969 
L 377.58714 -43.897969 
L 380.975095 -43.897969 
L 384.363049 -43.897969 
L 387.751004 -43.897969 
L 391.138959 -43.897969 
L 394.526914 -43.897969 
L 397.914869 -43.897969 
L 401.302823 -43.897969 
L 404.690778 -43.897969 
L 408.078733 -43.897969 
L 411.466688 -43.897969 
L 414.854642 -43.897969 
L 418.242597 -43.897969 
L 421.630552 -43.897969 
L 425.018507 -43.897969 
L 428.406462 -43.897969 
L 431.794416 -43.897969 
L 435.182371 -43.897969 
L 438.570326 -43.897969 
L 441.958281 -43.897969 
L 445.346235 -43.897969 
L 448.73419 -43.897969 
L 452.122145 -43.897969 
L 455.5101 -43.897969 
L 458.898055 -43.897969 
L 462.286009 -43.897969 
L 465.673964 -43.897969 
L 469.061919 -43.897969 
L 472.449874 -43.897969 
L 475.837828 -43.897969 
L 479.225783 -43.897969 
L 482.613738 -43.897969 
L 486.001693 -43.897969 
L 489.389648 -43.897969 
L 492.777602 -43.897969 
L 496.165557 -43.897969 
L 499.553512 -43.897969 
L 502.941467 -43.897969 
L 506.329421 -43.897969 
L 509.717376 -43.897969 
L 513.105331 -43.897969 
L 516.493286 -43.897969 
L 519.881241 -43.897969 
L 523.269195 -43.897969 
L 526.65715 -43.897969 
L 530.045105 -43.897969 
L 533.43306 -43.897969 
L 536.821014 -43.897969 
L 540.208969 -43.897969 
L 543.596924 -43.897969 
L 546.984879 -43.897969 
L 550.372834 -43.897969 
L 553.760788 -43.897969 
L 557.148743 -43.897969 
L 560.536698 -43.897969 
L 563.924653 -43.897969 
L 567.312607 -43.897969 
L 570.700562 -43.897969 
L 574.088517 -43.897969 
L 577.476472 -43.897969 
L 580.864427 -43.897969 
L 584.252381 -43.897969 
L 587.640336 -43.897969 
L 591.028291 -43.897969 
L 594.416246 -43.897969 
L 597.8042 -43.897969 
L 601.192155 -43.897969 
L 604.58011 -43.897969 
L 607.968065 -43.897969 
L 611.35602 -43.897969 
L 614.743974 -43.897969 
L 618.131929 -43.897969 
L 621.519884 -43.897969 
L 624.907839 -43.897969 
L 628.295793 -43.897969 
L 631.683748 -43.897969 
L 635.071703 -43.897969 
L 638.459658 -43.897969 
L 641.847612 -43.897969 
L 645.235567 -43.897969 
L 648.623522 -43.897969 
L 652.011477 -43.897969 
L 655.399432 -43.897969 
L 658.787386 -43.897969 
L 662.175341 -43.897969 
L 665.563296 -43.897969 
L 668.951251 -43.897969 
L 672.339205 -43.897969 
L 675.72716 -43.897969 
L 679.115115 -43.897969 
L 682.50307 -43.897969 
L 685.891025 -43.897969 
L 689.278979 -43.897969 
L 692.666934 -43.897969 
L 696.054889 -43.897969 
L 699.442844 -43.897969 
L 702.830798 -43.897969 
L 706.218753 -43.897969 
L 709.606708 -43.897969 
L 712.994663 -43.897969 
L 716.382618 -43.897969 
L 719.770572 -43.897969 
L 723.158527 -43.897969 
L 726.546482 -43.897969 
L 729.934437 -43.897969 
L 733.322391 -43.897969 
L 736.710346 -43.897969 
L 740.098301 -43.897969 
L 743.486256 -43.897969 
L 746.874211 -43.897969 
L 750.262165 -43.897969 
L 753.65012 -43.897969 
L 757.038075 -43.897969 
L 760.42603 -43.897969 
L 763.813984 -43.897969 
L 767.201939 -43.897969 
L 770.589894 -43.897969 
L 773.977849 -43.897969 
L 777.365804 -43.897969 
L 780.753758 -43.897969 
L 784.141713 -43.897969 
L 787.529668 -43.897969 
L 787.529668 -44.154973 
L 787.529668 -44.154973 
L 784.141713 -44.223383 
L 780.753758 -44.307757 
L 777.365804 -44.411208 
L 773.977849 -44.5373 
L 770.589894 -44.690081 
L 767.201939 -44.874109 
L 763.813984 -45.09447 
L 760.42603 -45.356785 
L 757.038075 -45.667207 
L 753.65012 -46.032403 
L 750.262165 -46.459523 
L 746.874211 -46.956144 
L 743.486256 -47.530207 
L 740.098301 -48.189922 
L 736.710346 -48.943664 
L 733.322391 -49.799844 
L 729.934437 -50.766765 
L 726.546482 -51.852461 
L 723.158527 -53.064529 
L 719.770572 -54.409946 
L 716.382618 -55.894887 
L 712.994663 -57.524553 
L 709.606708 -59.30299 
L 706.218753 -61.232943 
L 702.830798 -63.315724 
L 699.442844 -65.551102 
L 696.054889 -67.937245 
L 692.666934 -70.470687 
L 689.278979 -73.146352 
L 685.891025 -75.957624 
L 682.50307 -78.896466 
L 679.115115 -81.953604 
L 675.72716 -85.118749 
L 672.339205 -88.380882 
L 668.951251 -91.728583 
L 665.563296 -95.150394 
L 662.175341 -98.635227 
L 658.787386 -102.172784 
L 655.399432 -105.754001 
L 652.011477 -109.371481 
L 648.623522 -113.019922 
L 645.235567 -116.696514 
L 641.847612 -120.401289 
L 638.459658 -124.137414 
L 635.071703 -127.91141 
L 631.683748 -131.733277 
L 628.295793 -135.616513 
L 624.907839 -139.578024 
L 621.519884 -143.637896 
L 618.131929 -147.819049 
L 614.743974 -152.146742 
L 611.35602 -156.647956 
L 607.968065 -161.350646 
L 604.58011 -166.282882 
L 601.192155 -171.471896 
L 597.8042 -176.943057 
L 594.416246 -182.718803 
L 591.028291 -188.817565 
L 587.640336 -195.252718 
L 584.252381 -202.031604 
L 580.864427 -209.154655 
L 577.476472 -216.614671 
L 574.088517 -224.39628 
L 570.700562 -232.475617 
L 567.312607 -240.82025 
L 563.924653 -249.38937 
L 560.536698 -258.134255 
L 557.148743 -266.999015 
L 553.760788 -275.9216 
L 550.372834 -284.835053 
L 546.984879 -293.668974 
L 543.596924 -302.351157 
L 540.208969 -310.809348 
L 536.821014 -318.973063 
L 533.43306 -326.775415 
L 530.045105 -334.154879 
L 526.65715 -341.056925 
L 523.269195 -347.435485 
L 519.881241 -353.254172 
L 516.493286 -358.487223 
L 513.105331 -363.120122 
L 509.717376 -367.14989 
L 506.329421 -370.585011 
L 502.941467 -373.445019 
L 499.553512 -375.759735 
L 496.165557 -377.568206 
L 492.777602 -378.917354 
L 489.389648 -379.860402 
L 486.001693 -380.455125 
L 482.613738 -380.76197 
L 479.225783 -380.842125 
L 475.837828 -380.755585 
L 472.449874 -380.55928 
L 469.061919 -380.305311 
L 465.673964 -380.039364 
L 462.286009 -379.799327 
L 458.898055 -379.614159 
L 455.5101 -379.50303 
L 452.122145 -379.474767 
L 448.73419 -379.527601 
L 445.346235 -379.649224 
L 441.958281 -379.817158 
L 438.570326 -379.999411 
L 435.182371 -380.155399 
L 431.794416 -380.237124 
L 428.406462 -380.190545 
L 425.018507 -379.957131 
L 421.630552 -379.47554 
L 418.242597 -378.683376 
L 414.854642 -377.518989 
L 411.466688 -375.923252 
L 408.078733 -373.841291 
L 404.690778 -371.224092 
L 401.302823 -368.029977 
L 397.914869 -364.225881 
L 394.526914 -359.788411 
L 391.138959 -354.704664 
L 387.751004 -348.972769 
L 384.363049 -342.602165 
L 380.975095 -335.613586 
L 377.58714 -328.03877 
L 374.199185 -319.919914 
L 370.81123 -311.308869 
L 367.423276 -302.266122 
L 364.035321 -292.859587 
L 360.647366 -283.16324 
L 357.259411 -273.255638 
L 353.871456 -263.218354 
L 350.483502 -253.134379 
L 347.095547 -243.086518 
L 343.707592 -233.155823 
L 340.319637 -223.420097 
L 336.931683 -213.952492 
L 333.543728 -204.820242 
L 330.155773 -196.083538 
L 326.767818 -187.794573 
L 323.379863 -179.996774 
L 319.991909 -172.72422 
L 316.603954 -166.001267 
L 313.215999 -159.842366 
L 309.828044 -154.252097 
L 306.44009 -149.225385 
L 303.052135 -144.747921 
L 299.66418 -140.796751 
L 296.276225 -137.341037 
L 292.88827 -134.342962 
L 289.500316 -131.758769 
L 286.112361 -129.539893 
L 282.724406 -127.634185 
L 279.336451 -125.987174 
L 275.948497 -124.543355 
L 272.560542 -123.247467 
L 269.172587 -122.045726 
L 265.784632 -120.88699 
L 262.396678 -119.723815 
L 259.008723 -118.513396 
L 255.620768 -117.218345 
L 252.232813 -115.807309 
L 248.844858 -114.255407 
L 245.456904 -112.544471 
L 242.068949 -110.663106 
L 238.680994 -108.606558 
L 235.293039 -106.376411 
L 231.905085 -103.980125 
L 228.51713 -101.430438 
L 225.129175 -98.74465 
L 221.74122 -95.943832 
L 218.353265 -93.051974 
L 214.965311 -90.095108 
L 211.577356 -87.10044 
L 208.189401 -84.095511 
L 204.801446 -81.107414 
L 201.413492 -78.162093 
L 198.025537 -75.283731 
L 194.637582 -72.494248 
L 191.249627 -69.812912 
L 187.861672 -67.256062 
L 184.473718 -64.836948 
L 181.085763 -62.565679 
L 177.697808 -60.449261 
L 174.309853 -58.491736 
L 170.921899 -56.694374 
L 167.533944 -55.055933 
L 164.145989 -53.572963 
L 160.758034 -52.240122 
L 157.370079 -51.05052 
L 153.982125 -49.996053 
L 150.59417 -49.067727 
L 147.206215 -48.255962 
L 143.81826 -47.550869 
L 140.430306 -46.942498 
L 137.042351 -46.42104 
L 133.654396 -45.977008 
L 130.266441 -45.601366 
L 126.878486 -45.285641 
L 123.490532 -45.021983 
L 120.102577 -44.80322 
L 116.714622 -44.622864 
L 113.326667 -44.475118 
z
" style="stroke: #2ca02c"/>
    </defs>
    <g clip-path="url(#pf191967613)">
     <use xlink:href="#mf281891e0b" x="0" y="421.808864" style="fill: #2ca02c; fill-opacity: 0.35; stroke: #2ca02c"/>
    </g>
   </g>
   <g id="FillBetweenPolyCollection_2">
    <defs>
     <path id="mee3594d477" d="M 91.015771 -44.111669 
L 91.015771 -43.897969 
L 94.627956 -43.897969 
L 98.240141 -43.897969 
L 101.852326 -43.897969 
L 105.46451 -43.897969 
L 109.076695 -43.897969 
L 112.68888 -43.897969 
L 116.301065 -43.897969 
L 119.91325 -43.897969 
L 123.525435 -43.897969 
L 127.13762 -43.897969 
L 130.749805 -43.897969 
L 134.36199 -43.897969 
L 137.974175 -43.897969 
L 141.586359 -43.897969 
L 145.198544 -43.897969 
L 148.810729 -43.897969 
L 152.422914 -43.897969 
L 156.035099 -43.897969 
L 159.647284 -43.897969 
L 163.259469 -43.897969 
L 166.871654 -43.897969 
L 170.483839 -43.897969 
L 174.096023 -43.897969 
L 177.708208 -43.897969 
L 181.320393 -43.897969 
L 184.932578 -43.897969 
L 188.544763 -43.897969 
L 192.156948 -43.897969 
L 195.769133 -43.897969 
L 199.381318 -43.897969 
L 202.993503 -43.897969 
L 206.605687 -43.897969 
L 210.217872 -43.897969 
L 213.830057 -43.897969 
L 217.442242 -43.897969 
L 221.054427 -43.897969 
L 224.666612 -43.897969 
L 228.278797 -43.897969 
L 231.890982 -43.897969 
L 235.503167 -43.897969 
L 239.115351 -43.897969 
L 242.727536 -43.897969 
L 246.339721 -43.897969 
L 249.951906 -43.897969 
L 253.564091 -43.897969 
L 257.176276 -43.897969 
L 260.788461 -43.897969 
L 264.400646 -43.897969 
L 268.012831 -43.897969 
L 271.625015 -43.897969 
L 275.2372 -43.897969 
L 278.849385 -43.897969 
L 282.46157 -43.897969 
L 286.073755 -43.897969 
L 289.68594 -43.897969 
L 293.298125 -43.897969 
L 296.91031 -43.897969 
L 300.522495 -43.897969 
L 304.13468 -43.897969 
L 307.746864 -43.897969 
L 311.359049 -43.897969 
L 314.971234 -43.897969 
L 318.583419 -43.897969 
L 322.195604 -43.897969 
L 325.807789 -43.897969 
L 329.419974 -43.897969 
L 333.032159 -43.897969 
L 336.644344 -43.897969 
L 340.256528 -43.897969 
L 343.868713 -43.897969 
L 347.480898 -43.897969 
L 351.093083 -43.897969 
L 354.705268 -43.897969 
L 358.317453 -43.897969 
L 361.929638 -43.897969 
L 365.541823 -43.897969 
L 369.154008 -43.897969 
L 372.766192 -43.897969 
L 376.378377 -43.897969 
L 379.990562 -43.897969 
L 383.602747 -43.897969 
L 387.214932 -43.897969 
L 390.827117 -43.897969 
L 394.439302 -43.897969 
L 398.051487 -43.897969 
L 401.663672 -43.897969 
L 405.275856 -43.897969 
L 408.888041 -43.897969 
L 412.500226 -43.897969 
L 416.112411 -43.897969 
L 419.724596 -43.897969 
L 423.336781 -43.897969 
L 426.948966 -43.897969 
L 430.561151 -43.897969 
L 434.173336 -43.897969 
L 437.78552 -43.897969 
L 441.397705 -43.897969 
L 445.00989 -43.897969 
L 448.622075 -43.897969 
L 452.23426 -43.897969 
L 455.846445 -43.897969 
L 459.45863 -43.897969 
L 463.070815 -43.897969 
L 466.683 -43.897969 
L 470.295185 -43.897969 
L 473.907369 -43.897969 
L 477.519554 -43.897969 
L 481.131739 -43.897969 
L 484.743924 -43.897969 
L 488.356109 -43.897969 
L 491.968294 -43.897969 
L 495.580479 -43.897969 
L 499.192664 -43.897969 
L 502.804849 -43.897969 
L 506.417033 -43.897969 
L 510.029218 -43.897969 
L 513.641403 -43.897969 
L 517.253588 -43.897969 
L 520.865773 -43.897969 
L 524.477958 -43.897969 
L 528.090143 -43.897969 
L 531.702328 -43.897969 
L 535.314513 -43.897969 
L 538.926697 -43.897969 
L 542.538882 -43.897969 
L 546.151067 -43.897969 
L 549.763252 -43.897969 
L 553.375437 -43.897969 
L 556.987622 -43.897969 
L 560.599807 -43.897969 
L 564.211992 -43.897969 
L 567.824177 -43.897969 
L 571.436361 -43.897969 
L 575.048546 -43.897969 
L 578.660731 -43.897969 
L 582.272916 -43.897969 
L 585.885101 -43.897969 
L 589.497286 -43.897969 
L 593.109471 -43.897969 
L 596.721656 -43.897969 
L 600.333841 -43.897969 
L 603.946025 -43.897969 
L 607.55821 -43.897969 
L 611.170395 -43.897969 
L 614.78258 -43.897969 
L 618.394765 -43.897969 
L 622.00695 -43.897969 
L 625.619135 -43.897969 
L 629.23132 -43.897969 
L 632.843505 -43.897969 
L 636.45569 -43.897969 
L 640.067874 -43.897969 
L 643.680059 -43.897969 
L 647.292244 -43.897969 
L 650.904429 -43.897969 
L 654.516614 -43.897969 
L 658.128799 -43.897969 
L 661.740984 -43.897969 
L 665.353169 -43.897969 
L 668.965354 -43.897969 
L 672.577538 -43.897969 
L 676.189723 -43.897969 
L 679.801908 -43.897969 
L 683.414093 -43.897969 
L 687.026278 -43.897969 
L 690.638463 -43.897969 
L 694.250648 -43.897969 
L 697.862833 -43.897969 
L 701.475018 -43.897969 
L 705.087202 -43.897969 
L 708.699387 -43.897969 
L 712.311572 -43.897969 
L 715.923757 -43.897969 
L 719.535942 -43.897969 
L 723.148127 -43.897969 
L 726.760312 -43.897969 
L 730.372497 -43.897969 
L 733.984682 -43.897969 
L 737.596866 -43.897969 
L 741.209051 -43.897969 
L 744.821236 -43.897969 
L 748.433421 -43.897969 
L 752.045606 -43.897969 
L 755.657791 -43.897969 
L 759.269976 -43.897969 
L 762.882161 -43.897969 
L 766.494346 -43.897969 
L 770.106531 -43.897969 
L 773.718715 -43.897969 
L 777.3309 -43.897969 
L 780.943085 -43.897969 
L 784.55527 -43.897969 
L 788.167455 -43.897969 
L 791.77964 -43.897969 
L 795.391825 -43.897969 
L 799.00401 -43.897969 
L 802.616195 -43.897969 
L 806.228379 -43.897969 
L 809.840564 -43.897969 
L 809.840564 -44.07098 
L 809.840564 -44.07098 
L 806.228379 -44.115996 
L 802.616195 -44.171129 
L 799.00401 -44.238224 
L 795.391825 -44.319359 
L 791.77964 -44.416853 
L 788.167455 -44.533268 
L 784.55527 -44.671406 
L 780.943085 -44.834301 
L 777.3309 -45.025205 
L 773.718715 -45.247567 
L 770.106531 -45.505006 
L 766.494346 -45.801283 
L 762.882161 -46.140259 
L 759.269976 -46.525869 
L 755.657791 -46.962074 
L 752.045606 -47.452841 
L 748.433421 -48.002107 
L 744.821236 -48.613768 
L 741.209051 -49.291676 
L 737.596866 -50.039652 
L 733.984682 -50.861519 
L 730.372497 -51.761154 
L 726.760312 -52.742568 
L 723.148127 -53.809998 
L 719.535942 -54.968027 
L 715.923757 -56.221713 
L 712.311572 -57.57673 
L 708.699387 -59.039517 
L 705.087202 -60.617413 
L 701.475018 -62.318781 
L 697.862833 -64.153105 
L 694.250648 -66.131045 
L 690.638463 -68.264451 
L 687.026278 -70.566312 
L 683.414093 -73.050639 
L 679.801908 -75.732276 
L 676.189723 -78.626642 
L 672.577538 -81.749389 
L 668.965354 -85.115998 
L 665.353169 -88.741314 
L 661.740984 -92.639038 
L 658.128799 -96.821178 
L 654.516614 -101.297503 
L 650.904429 -106.075003 
L 647.292244 -111.157381 
L 643.680059 -116.544614 
L 640.067874 -122.23258 
L 636.45569 -128.212802 
L 632.843505 -134.472298 
L 629.23132 -140.993564 
L 625.619135 -147.754693 
L 622.00695 -154.729636 
L 618.394765 -161.888585 
L 614.78258 -169.19849 
L 611.170395 -176.623676 
L 607.55821 -184.126548 
L 603.946025 -191.668356 
L 600.333841 -199.21 
L 596.721656 -206.712846 
L 593.109471 -214.139512 
L 589.497286 -221.454625 
L 585.885101 -228.625504 
L 582.272916 -235.622748 
L 578.660731 -242.420736 
L 575.048546 -248.998001 
L 571.436361 -255.337488 
L 567.824177 -261.426683 
L 564.211992 -267.257625 
L 560.599807 -272.8268 
L 556.987622 -278.134924 
L 553.375437 -283.186631 
L 549.763252 -287.99008 
L 546.151067 -292.556478 
L 542.538882 -296.899566 
L 538.926697 -301.035041 
L 535.314513 -304.979966 
L 531.702328 -308.752155 
L 528.090143 -312.369562 
L 524.477958 -315.849673 
L 520.865773 -319.208931 
L 517.253588 -322.462183 
L 513.641403 -325.622177 
L 510.029218 -328.699115 
L 506.417033 -331.700261 
L 502.804849 -334.629636 
L 499.192664 -337.487775 
L 495.580479 -340.271583 
L 491.968294 -342.97428 
L 488.356109 -345.585431 
L 484.743924 -348.091084 
L 481.131739 -350.473992 
L 477.519554 -352.713928 
L 473.907369 -354.788086 
L 470.295185 -356.671559 
L 466.683 -358.337878 
L 463.070815 -359.759613 
L 459.45863 -360.909011 
L 455.846445 -361.758662 
L 452.23426 -362.282177 
L 448.622075 -362.454859 
L 445.00989 -362.254364 
L 441.397705 -361.661313 
L 437.78552 -360.659867 
L 434.173336 -359.238235 
L 430.561151 -357.389105 
L 426.948966 -355.109991 
L 423.336781 -352.40348 
L 419.724596 -349.277379 
L 416.112411 -345.744754 
L 412.500226 -341.823841 
L 408.888041 -337.537862 
L 405.275856 -332.914704 
L 401.663672 -327.9865 
L 398.051487 -322.7891 
L 394.439302 -317.361444 
L 390.827117 -311.744847 
L 387.214932 -305.982224 
L 383.602747 -300.117252 
L 379.990562 -294.193506 
L 376.378377 -288.253588 
L 372.766192 -282.338267 
L 369.154008 -276.485651 
L 365.541823 -270.730439 
L 361.929638 -265.103239 
L 358.317453 -259.629999 
L 354.705268 -254.331568 
L 351.093083 -249.223378 
L 347.480898 -244.315285 
L 343.868713 -239.611549 
L 340.256528 -235.110971 
L 336.644344 -230.807162 
L 333.032159 -226.688952 
L 329.419974 -222.740906 
L 325.807789 -218.943939 
L 322.195604 -215.276007 
L 318.583419 -211.712845 
L 314.971234 -208.228732 
L 311.359049 -204.797258 
L 307.746864 -201.392071 
L 304.13468 -197.987587 
L 300.522495 -194.559633 
L 296.91031 -191.086026 
L 293.298125 -187.547067 
L 289.68594 -183.925938 
L 286.073755 -180.209014 
L 282.46157 -176.386071 
L 278.849385 -172.45041 
L 275.2372 -168.398885 
L 271.625015 -164.231857 
L 268.012831 -159.953066 
L 264.400646 -155.569441 
L 260.788461 -151.09086 
L 257.176276 -146.529854 
L 253.564091 -141.901277 
L 249.951906 -137.221952 
L 246.339721 -132.510288 
L 242.727536 -127.785898 
L 239.115351 -123.069196 
L 235.503167 -118.381016 
L 231.890982 -113.742224 
L 228.278797 -109.173358 
L 224.666612 -104.694285 
L 221.054427 -100.323881 
L 217.442242 -96.079753 
L 213.830057 -91.977988 
L 210.217872 -88.032945 
L 206.605687 -84.257085 
L 202.993503 -80.660854 
L 199.381318 -77.252597 
L 195.769133 -74.038527 
L 192.156948 -71.022729 
L 188.544763 -68.207208 
L 184.932578 -65.591975 
L 181.320393 -63.175162 
L 177.708208 -60.953171 
L 174.096023 -58.920841 
L 170.483839 -57.071638 
L 166.871654 -55.397854 
L 163.259469 -53.890814 
L 159.647284 -52.541083 
L 156.035099 -51.338671 
L 152.422914 -50.273231 
L 148.810729 -49.334239 
L 145.198544 -48.511164 
L 141.586359 -47.79362 
L 137.974175 -47.171497 
L 134.36199 -46.635069 
L 130.749805 -46.175086 
L 127.13762 -45.782841 
L 123.525435 -45.450225 
L 119.91325 -45.16975 
L 116.301065 -44.934573 
L 112.68888 -44.738491 
L 109.076695 -44.575932 
L 105.46451 -44.441931 
L 101.852326 -44.332102 
L 98.240141 -44.242601 
L 94.627956 -44.170085 
L 91.015771 -44.111669 
z
" style="stroke: #1f77b4"/>
    </defs>
    <g clip-path="url(#pf191967613)">
     <use xlink:href="#mee3594d477" x="0" y="421.808864" style="fill: #1f77b4; fill-opacity: 0.35; stroke: #1f77b4"/>
    </g>
   </g>
   <g id="patch_3">
    <path d="M 55.074531 377.910895 
L 55.074531 24.119531 
" style="fill: none; stroke: #262626; stroke-width: 1.25; stroke-linejoin: miter; stroke-linecap: square"/>
   </g>
   <g id="patch_4">
    <path d="M 845.781804 377.910895 
L 845.781804 24.119531 
" style="fill: none; stroke: #262626; stroke-width: 1.25; stroke-linejoin: miter; stroke-linecap: square"/>
   </g>
   <g id="patch_5">
    <path d="M 55.074531 377.910895 
L 845.781804 377.910895 
" style="fill: none; stroke: #262626; stroke-width: 1.25; stroke-linejoin: miter; stroke-linecap: square"/>
   </g>
   <g id="patch_6">
    <path d="M 55.074531 24.119531 
L 845.781804 24.119531 
" style="fill: none; stroke: #262626; stroke-width: 1.25; stroke-linejoin: miter; stroke-linecap: square"/>
   </g>
   <g id="text_14">
    <!-- GPA Density by Client Eligibility -->
    <g style="fill: #262626" transform="translate(345.941449 18.119531) scale(0.15 -0.15)">
     <defs>
      <path id="ArialMT-62" d="M 941 0 
L 419 0 
L 419 4581 
L 981 4581 
L 981 2947 
Q 1338 3394 1891 3394 
Q 2197 3394 2470 3270 
Q 2744 3147 2920 2923 
Q 3097 2700 3197 2384 
Q 3297 2069 3297 1709 
Q 3297 856 2875 390 
Q 2453 -75 1863 -75 
Q 1275 -75 941 416 
L 941 0 
z
M 934 1684 
Q 934 1088 1097 822 
Q 1363 388 1816 388 
Q 2184 388 2453 708 
Q 2722 1028 2722 1663 
Q 2722 2313 2464 2622 
Q 2206 2931 1841 2931 
Q 1472 2931 1203 2611 
Q 934 2291 934 1684 
z
" transform="scale(0.015625)"/>
      <path id="ArialMT-43" d="M 3763 1606 
L 4369 1453 
Q 4178 706 3683 314 
Q 3188 -78 2472 -78 
Q 1731 -78 1267 223 
Q 803 525 561 1097 
Q 319 1669 319 2325 
Q 319 3041 592 3573 
Q 866 4106 1370 4382 
Q 1875 4659 2481 4659 
Q 3169 4659 3637 4309 
Q 4106 3959 4291 3325 
L 3694 3184 
Q 3534 3684 3231 3912 
Q 2928 4141 2469 4141 
Q 1941 4141 1586 3887 
Q 1231 3634 1087 3207 
Q 944 2781 944 2328 
Q 944 1744 1114 1308 
Q 1284 872 1643 656 
Q 2003 441 2422 441 
Q 2931 441 3284 734 
Q 3638 1028 3763 1606 
z
" transform="scale(0.015625)"/>
      <path id="ArialMT-6c" d="M 409 0 
L 409 4581 
L 972 4581 
L 972 0 
L 409 0 
z
" transform="scale(0.015625)"/>
      <path id="ArialMT-45" d="M 506 0 
L 506 4581 
L 3819 4581 
L 3819 4041 
L 1113 4041 
L 1113 2638 
L 3647 2638 
L 3647 2100 
L 1113 2100 
L 1113 541 
L 3925 541 
L 3925 0 
L 506 0 
z
" transform="scale(0.015625)"/>
     </defs>
     <use xlink:href="#ArialMT-47"/>
     <use xlink:href="#ArialMT-50" transform="translate(77.783203 0)"/>
     <use xlink:href="#ArialMT-41" transform="translate(137.107422 0)"/>
     <use xlink:href="#ArialMT-20" transform="translate(198.306641 0)"/>
     <use xlink:href="#ArialMT-44" transform="translate(226.089844 0)"/>
     <use xlink:href="#ArialMT-65" transform="translate(298.306641 0)"/>
     <use xlink:href="#ArialMT-6e" transform="translate(353.921875 0)"/>
     <use xlink:href="#ArialMT-73" transform="translate(409.537109 0)"/>
     <use xlink:href="#ArialMT-69" transform="translate(459.537109 0)"/>
     <use xlink:href="#ArialMT-74" transform="translate(481.753906 0)"/>
     <use xlink:href="#ArialMT-79" transform="translate(509.537109 0)"/>
     <use xlink:href="#ArialMT-20" transform="translate(559.537109 0)"/>
     <use xlink:href="#ArialMT-62" transform="translate(587.320312 0)"/>
     <use xlink:href="#ArialMT-79" transform="translate(642.935547 0)"/>
     <use xlink:href="#ArialMT-20" transform="translate(692.935547 0)"/>
     <use xlink:href="#ArialMT-43" transform="translate(720.71875 0)"/>
     <use xlink:href="#ArialMT-6c" transform="translate(792.935547 0)"/>
     <use xlink:href="#ArialMT-69" transform="translate(815.152344 0)"/>
     <use xlink:href="#ArialMT-65" transform="translate(837.369141 0)"/>
     <use xlink:href="#ArialMT-6e" transform="translate(892.984375 0)"/>
     <use xlink:href="#ArialMT-74" transform="translate(948.599609 0)"/>
     <use xlink:href="#ArialMT-20" transform="translate(976.382812 0)"/>
     <use xlink:href="#ArialMT-45" transform="translate(1004.166016 0)"/>
     <use xlink:href="#ArialMT-6c" transform="translate(1070.865234 0)"/>
     <use xlink:href="#ArialMT-69" transform="translate(1093.082031 0)"/>
     <use xlink:href="#ArialMT-67" transform="translate(1115.298828 0)"/>
     <use xlink:href="#ArialMT-69" transform="translate(1170.914062 0)"/>
     <use xlink:href="#ArialMT-62" transform="translate(1193.130859 0)"/>
     <use xlink:href="#ArialMT-69" transform="translate(1248.746094 0)"/>
     <use xlink:href="#ArialMT-6c" transform="translate(1270.962891 0)"/>
     <use xlink:href="#ArialMT-69" transform="translate(1293.179688 0)"/>
     <use xlink:href="#ArialMT-74" transform="translate(1315.396484 0)"/>
     <use xlink:href="#ArialMT-79" transform="translate(1343.179688 0)"/>
    </g>
   </g>
   <g id="legend_1">
    <g id="patch_7">
     <path d="M 756.202116 60.644531 
L 838.781804 60.644531 
Q 840.781804 60.644531 840.781804 58.644531 
L 840.781804 31.119531 
Q 840.781804 29.119531 838.781804 29.119531 
L 756.202116 29.119531 
Q 754.202116 29.119531 754.202116 31.119531 
L 754.202116 58.644531 
Q 754.202116 60.644531 756.202116 60.644531 
z
" style="fill: #ffffff; opacity: 0.8; stroke: #cccccc; stroke-linejoin: miter"/>
    </g>
    <g id="patch_8">
     <path d="M 758.202116 40.277344 
L 778.202116 40.277344 
L 778.202116 33.277344 
L 758.202116 33.277344 
z
" style="fill: #2ca02c; fill-opacity: 0.35; stroke: #2ca02c; stroke-linejoin: miter"/>
    </g>
    <g id="text_15">
     <!-- Eligible -->
     <g style="fill: #262626" transform="translate(786.202116 40.277344) scale(0.1 -0.1)">
      <use xlink:href="#ArialMT-45"/>
      <use xlink:href="#ArialMT-6c" transform="translate(66.699219 0)"/>
      <use xlink:href="#ArialMT-69" transform="translate(88.916016 0)"/>
      <use xlink:href="#ArialMT-67" transform="translate(111.132812 0)"/>
      <use xlink:href="#ArialMT-69" transform="translate(166.748047 0)"/>
      <use xlink:href="#ArialMT-62" transform="translate(188.964844 0)"/>
      <use xlink:href="#ArialMT-6c" transform="translate(244.580078 0)"/>
      <use xlink:href="#ArialMT-65" transform="translate(266.796875 0)"/>
     </g>
    </g>
    <g id="patch_9">
     <path d="M 758.202116 54.539844 
L 778.202116 54.539844 
L 778.202116 47.539844 
L 758.202116 47.539844 
z
" style="fill: #1f77b4; fill-opacity: 0.35; stroke: #1f77b4; stroke-linejoin: miter"/>
    </g>
    <g id="text_16">
     <!-- Not Eligible -->
     <g style="fill: #262626" transform="translate(786.202116 54.539844) scale(0.1 -0.1)">
      <defs>
       <path id="ArialMT-4e" d="M 488 0 
L 488 4581 
L 1109 4581 
L 3516 984 
L 3516 4581 
L 4097 4581 
L 4097 0 
L 3475 0 
L 1069 3600 
L 1069 0 
L 488 0 
z
" transform="scale(0.015625)"/>
       <path id="ArialMT-6f" d="M 213 1659 
Q 213 2581 725 3025 
Q 1153 3394 1769 3394 
Q 2453 3394 2887 2945 
Q 3322 2497 3322 1706 
Q 3322 1066 3130 698 
Q 2938 331 2570 128 
Q 2203 -75 1769 -75 
Q 1072 -75 642 372 
Q 213 819 213 1659 
z
M 791 1659 
Q 791 1022 1069 705 
Q 1347 388 1769 388 
Q 2188 388 2466 706 
Q 2744 1025 2744 1678 
Q 2744 2294 2464 2611 
Q 2184 2928 1769 2928 
Q 1347 2928 1069 2612 
Q 791 2297 791 1659 
z
" transform="scale(0.015625)"/>
      </defs>
      <use xlink:href="#ArialMT-4e"/>
      <use xlink:href="#ArialMT-6f" transform="translate(72.216797 0)"/>
      <use xlink:href="#ArialMT-74" transform="translate(127.832031 0)"/>
      <use xlink:href="#ArialMT-20" transform="translate(155.615234 0)"/>
      <use xlink:href="#ArialMT-45" transform="translate(183.398438 0)"/>
      <use xlink:href="#ArialMT-6c" transform="translate(250.097656 0)"/>
      <use xlink:href="#ArialMT-69" transform="translate(272.314453 0)"/>
      <use xlink:href="#ArialMT-67" transform="translate(294.53125 0)"/>
      <use xlink:href="#ArialMT-69" transform="translate(350.146484 0)"/>
      <use xlink:href="#ArialMT-62" transform="translate(372.363281 0)"/>
      <use xlink:href="#ArialMT-6c" transform="translate(427.978516 0)"/>
      <use xlink:href="#ArialMT-65" transform="translate(450.195312 0)"/>
     </g>
    </g>
   </g>
  </g>
 </g>
 <defs>
  <clipPath id="pf191967613">
   <rect x="55.074531" y="24.119531" width="790.707273" height="353.791364"/>
  </clipPath>
 </defs>
</svg>
