<?xml version="1.0" encoding="utf-8" standalone="no"?>
<!DOCTYPE svg PUBLIC "-//W3C//DTD SVG 1.1//EN"
  "http://www.w3.org/Graphics/SVG/1.1/DTD/svg11.dtd">
<svg xmlns:xlink="http://www.w3.org/1999/xlink" width="1139.986023pt" height="420.153068pt" viewBox="0 0 1139.986023 420.153068" xmlns="http://www.w3.org/2000/svg" version="1.1">
 <metadata>
  <rdf:RDF xmlns:dc="http://purl.org/dc/elements/1.1/" xmlns:cc="http://creativecommons.org/ns#" xmlns:rdf="http://www.w3.org/1999/02/22-rdf-syntax-ns#">
   <cc:Work>
    <dc:type rdf:resource="http://purl.org/dc/dcmitype/StillImage"/>
    <dc:date>2025-08-24T20:06:59.392872</dc:date>
    <dc:format>image/svg+xml</dc:format>
    <dc:creator>
     <cc:Agent>
      <dc:title>Matplotlib v3.10.1, https://matplotlib.org/</dc:title>
     </cc:Agent>
    </dc:creator>
   </cc:Work>
  </rdf:RDF>
 </metadata>
 <defs>
  <style type="text/css">*{stroke-linejoin: round; stroke-linecap: butt}</style>
 </defs>
 <g id="figure_1">
  <g id="patch_1">
   <path d="M 0 420.153068 
L 1139.986023 420.153068 
L 1139.986023 0 
L 0 0 
z
" style="fill: #ffffff"/>
  </g>
  <g id="axes_1">
   <g id="patch_2">
    <path d="M 48.67875 356.609318 
L 1132.786023 356.609318 
L 1132.786023 24.8475 
L 48.67875 24.8475 
z
" style="fill: #ffffff"/>
   </g>
   <g id="matplotlib.axis_1">
    <g id="xtick_1">
     <g id="text_1">
      <!-- P030 -->
      <g style="fill: #262626" transform="translate(66.431036 394.133068) rotate(-90) scale(0.12 -0.12)">
       <defs>
        <path id="ArialMT-50" d="M 494 0 
L 494 4581 
L 2222 4581 
Q 2678 4581 2919 4538 
Q 3256 4481 3484 4323 
Q 3713 4166 3852 3881 
Q 3991 3597 3991 3256 
Q 3991 2672 3619 2267 
Q 3247 1863 2275 1863 
L 1100 1863 
L 1100 0 
L 494 0 
z
M 1100 2403 
L 2284 2403 
Q 2872 2403 3119 2622 
Q 3366 2841 3366 3238 
Q 3366 3525 3220 3729 
Q 3075 3934 2838 4000 
Q 2684 4041 2272 4041 
L 1100 4041 
L 1100 2403 
z
" transform="scale(0.015625)"/>
        <path id="ArialMT-30" d="M 266 2259 
Q 266 3072 433 3567 
Q 600 4063 929 4331 
Q 1259 4600 1759 4600 
Q 2128 4600 2406 4451 
Q 2684 4303 2865 4023 
Q 3047 3744 3150 3342 
Q 3253 2941 3253 2259 
Q 3253 1453 3087 958 
Q 2922 463 2592 192 
Q 2263 -78 1759 -78 
Q 1097 -78 719 397 
Q 266 969 266 2259 
z
M 844 2259 
Q 844 1131 1108 757 
Q 1372 384 1759 384 
Q 2147 384 2411 759 
Q 2675 1134 2675 2259 
Q 2675 3391 2411 3762 
Q 2147 4134 1753 4134 
Q 1366 4134 1134 3806 
Q 844 3388 844 2259 
z
" transform="scale(0.015625)"/>
        <path id="ArialMT-33" d="M 269 1209 
L 831 1284 
Q 928 806 1161 595 
Q 1394 384 1728 384 
Q 2125 384 2398 659 
Q 2672 934 2672 1341 
Q 2672 1728 2419 1979 
Q 2166 2231 1775 2231 
Q 1616 2231 1378 2169 
L 1441 2663 
Q 1497 2656 1531 2656 
Q 1891 2656 2178 2843 
Q 2466 3031 2466 3422 
Q 2466 3731 2256 3934 
Q 2047 4138 1716 4138 
Q 1388 4138 1169 3931 
Q 950 3725 888 3313 
L 325 3413 
Q 428 3978 793 4289 
Q 1159 4600 1703 4600 
Q 2078 4600 2393 4439 
Q 2709 4278 2876 4000 
Q 3044 3722 3044 3409 
Q 3044 3113 2884 2869 
Q 2725 2625 2413 2481 
Q 2819 2388 3044 2092 
Q 3269 1797 3269 1353 
Q 3269 753 2831 336 
Q 2394 -81 1725 -81 
Q 1122 -81 723 278 
Q 325 638 269 1209 
z
" transform="scale(0.015625)"/>
       </defs>
       <use xlink:href="#ArialMT-50"/>
       <use xlink:href="#ArialMT-30" transform="translate(66.699219 0)"/>
       <use xlink:href="#ArialMT-33" transform="translate(122.314453 0)"/>
       <use xlink:href="#ArialMT-30" transform="translate(177.929688 0)"/>
      </g>
     </g>
    </g>
    <g id="xtick_2">
     <g id="text_2">
      <!-- P016 -->
      <g style="fill: #262626" transform="translate(95.731232 394.133068) rotate(-90) scale(0.12 -0.12)">
       <defs>
        <path id="ArialMT-31" d="M 2384 0 
L 1822 0 
L 1822 3584 
Q 1619 3391 1289 3197 
Q 959 3003 697 2906 
L 697 3450 
Q 1169 3672 1522 3987 
Q 1875 4303 2022 4600 
L 2384 4600 
L 2384 0 
z
" transform="scale(0.015625)"/>
        <path id="ArialMT-36" d="M 3184 3459 
L 2625 3416 
Q 2550 3747 2413 3897 
Q 2184 4138 1850 4138 
Q 1581 4138 1378 3988 
Q 1113 3794 959 3422 
Q 806 3050 800 2363 
Q 1003 2672 1297 2822 
Q 1591 2972 1913 2972 
Q 2475 2972 2870 2558 
Q 3266 2144 3266 1488 
Q 3266 1056 3080 686 
Q 2894 316 2569 119 
Q 2244 -78 1831 -78 
Q 1128 -78 684 439 
Q 241 956 241 2144 
Q 241 3472 731 4075 
Q 1159 4600 1884 4600 
Q 2425 4600 2770 4297 
Q 3116 3994 3184 3459 
z
M 888 1484 
Q 888 1194 1011 928 
Q 1134 663 1356 523 
Q 1578 384 1822 384 
Q 2178 384 2434 671 
Q 2691 959 2691 1453 
Q 2691 1928 2437 2201 
Q 2184 2475 1800 2475 
Q 1419 2475 1153 2201 
Q 888 1928 888 1484 
z
" transform="scale(0.015625)"/>
       </defs>
       <use xlink:href="#ArialMT-50"/>
       <use xlink:href="#ArialMT-30" transform="translate(66.699219 0)"/>
       <use xlink:href="#ArialMT-31" transform="translate(122.314453 0)"/>
       <use xlink:href="#ArialMT-36" transform="translate(177.929688 0)"/>
      </g>
     </g>
    </g>
    <g id="xtick_3">
     <g id="text_3">
      <!-- P031 -->
      <g style="fill: #262626" transform="translate(125.031429 394.133068) rotate(-90) scale(0.12 -0.12)">
       <use xlink:href="#ArialMT-50"/>
       <use xlink:href="#ArialMT-30" transform="translate(66.699219 0)"/>
       <use xlink:href="#ArialMT-33" transform="translate(122.314453 0)"/>
       <use xlink:href="#ArialMT-31" transform="translate(177.929688 0)"/>
      </g>
     </g>
    </g>
    <g id="xtick_4">
     <g id="text_4">
      <!-- P015 -->
      <g style="fill: #262626" transform="translate(154.331625 394.133068) rotate(-90) scale(0.12 -0.12)">
       <defs>
        <path id="ArialMT-35" d="M 266 1200 
L 856 1250 
Q 922 819 1161 601 
Q 1400 384 1738 384 
Q 2144 384 2425 690 
Q 2706 997 2706 1503 
Q 2706 1984 2436 2262 
Q 2166 2541 1728 2541 
Q 1456 2541 1237 2417 
Q 1019 2294 894 2097 
L 366 2166 
L 809 4519 
L 3088 4519 
L 3088 3981 
L 1259 3981 
L 1013 2750 
Q 1425 3038 1878 3038 
Q 2478 3038 2890 2622 
Q 3303 2206 3303 1553 
Q 3303 931 2941 478 
Q 2500 -78 1738 -78 
Q 1113 -78 717 272 
Q 322 622 266 1200 
z
" transform="scale(0.015625)"/>
       </defs>
       <use xlink:href="#ArialMT-50"/>
       <use xlink:href="#ArialMT-30" transform="translate(66.699219 0)"/>
       <use xlink:href="#ArialMT-31" transform="translate(122.314453 0)"/>
       <use xlink:href="#ArialMT-35" transform="translate(177.929688 0)"/>
      </g>
     </g>
    </g>
    <g id="xtick_5">
     <g id="text_5">
      <!-- P032 -->
      <g style="fill: #262626" transform="translate(183.631822 394.133068) rotate(-90) scale(0.12 -0.12)">
       <defs>
        <path id="ArialMT-32" d="M 3222 541 
L 3222 0 
L 194 0 
Q 188 203 259 391 
Q 375 700 629 1000 
Q 884 1300 1366 1694 
Q 2113 2306 2375 2664 
Q 2638 3022 2638 3341 
Q 2638 3675 2398 3904 
Q 2159 4134 1775 4134 
Q 1369 4134 1125 3890 
Q 881 3647 878 3216 
L 300 3275 
Q 359 3922 746 4261 
Q 1134 4600 1788 4600 
Q 2447 4600 2831 4234 
Q 3216 3869 3216 3328 
Q 3216 3053 3103 2787 
Q 2991 2522 2730 2228 
Q 2469 1934 1863 1422 
Q 1356 997 1212 845 
Q 1069 694 975 541 
L 3222 541 
z
" transform="scale(0.015625)"/>
       </defs>
       <use xlink:href="#ArialMT-50"/>
       <use xlink:href="#ArialMT-30" transform="translate(66.699219 0)"/>
       <use xlink:href="#ArialMT-33" transform="translate(122.314453 0)"/>
       <use xlink:href="#ArialMT-32" transform="translate(177.929688 0)"/>
      </g>
     </g>
    </g>
    <g id="xtick_6">
     <g id="text_6">
      <!-- P027 -->
      <g style="fill: #262626" transform="translate(212.932019 394.133068) rotate(-90) scale(0.12 -0.12)">
       <defs>
        <path id="ArialMT-37" d="M 303 3981 
L 303 4522 
L 3269 4522 
L 3269 4084 
Q 2831 3619 2401 2847 
Q 1972 2075 1738 1259 
Q 1569 684 1522 0 
L 944 0 
Q 953 541 1156 1306 
Q 1359 2072 1739 2783 
Q 2119 3494 2547 3981 
L 303 3981 
z
" transform="scale(0.015625)"/>
       </defs>
       <use xlink:href="#ArialMT-50"/>
       <use xlink:href="#ArialMT-30" transform="translate(66.699219 0)"/>
       <use xlink:href="#ArialMT-32" transform="translate(122.314453 0)"/>
       <use xlink:href="#ArialMT-37" transform="translate(177.929688 0)"/>
      </g>
     </g>
    </g>
    <g id="xtick_7">
     <g id="text_7">
      <!-- P019 -->
      <g style="fill: #262626" transform="translate(242.232215 394.133068) rotate(-90) scale(0.12 -0.12)">
       <defs>
        <path id="ArialMT-39" d="M 350 1059 
L 891 1109 
Q 959 728 1153 556 
Q 1347 384 1650 384 
Q 1909 384 2104 503 
Q 2300 622 2425 820 
Q 2550 1019 2634 1356 
Q 2719 1694 2719 2044 
Q 2719 2081 2716 2156 
Q 2547 1888 2255 1720 
Q 1963 1553 1622 1553 
Q 1053 1553 659 1965 
Q 266 2378 266 3053 
Q 266 3750 677 4175 
Q 1088 4600 1706 4600 
Q 2153 4600 2523 4359 
Q 2894 4119 3086 3673 
Q 3278 3228 3278 2384 
Q 3278 1506 3087 986 
Q 2897 466 2520 194 
Q 2144 -78 1638 -78 
Q 1100 -78 759 220 
Q 419 519 350 1059 
z
M 2653 3081 
Q 2653 3566 2395 3850 
Q 2138 4134 1775 4134 
Q 1400 4134 1122 3828 
Q 844 3522 844 3034 
Q 844 2597 1108 2323 
Q 1372 2050 1759 2050 
Q 2150 2050 2401 2323 
Q 2653 2597 2653 3081 
z
" transform="scale(0.015625)"/>
       </defs>
       <use xlink:href="#ArialMT-50"/>
       <use xlink:href="#ArialMT-30" transform="translate(66.699219 0)"/>
       <use xlink:href="#ArialMT-31" transform="translate(122.314453 0)"/>
       <use xlink:href="#ArialMT-39" transform="translate(177.929688 0)"/>
      </g>
     </g>
    </g>
    <g id="xtick_8">
     <g id="text_8">
      <!-- P029 -->
      <g style="fill: #262626" transform="translate(271.532412 394.133068) rotate(-90) scale(0.12 -0.12)">
       <use xlink:href="#ArialMT-50"/>
       <use xlink:href="#ArialMT-30" transform="translate(66.699219 0)"/>
       <use xlink:href="#ArialMT-32" transform="translate(122.314453 0)"/>
       <use xlink:href="#ArialMT-39" transform="translate(177.929688 0)"/>
      </g>
     </g>
    </g>
    <g id="xtick_9">
     <g id="text_9">
      <!-- P017 -->
      <g style="fill: #262626" transform="translate(300.832608 394.133068) rotate(-90) scale(0.12 -0.12)">
       <use xlink:href="#ArialMT-50"/>
       <use xlink:href="#ArialMT-30" transform="translate(66.699219 0)"/>
       <use xlink:href="#ArialMT-31" transform="translate(122.314453 0)"/>
       <use xlink:href="#ArialMT-37" transform="translate(177.929688 0)"/>
      </g>
     </g>
    </g>
    <g id="xtick_10">
     <g id="text_10">
      <!-- P018 -->
      <g style="fill: #262626" transform="translate(330.132805 394.133068) rotate(-90) scale(0.12 -0.12)">
       <defs>
        <path id="ArialMT-38" d="M 1131 2484 
Q 781 2613 612 2850 
Q 444 3088 444 3419 
Q 444 3919 803 4259 
Q 1163 4600 1759 4600 
Q 2359 4600 2725 4251 
Q 3091 3903 3091 3403 
Q 3091 3084 2923 2848 
Q 2756 2613 2416 2484 
Q 2838 2347 3058 2040 
Q 3278 1734 3278 1309 
Q 3278 722 2862 322 
Q 2447 -78 1769 -78 
Q 1091 -78 675 323 
Q 259 725 259 1325 
Q 259 1772 486 2073 
Q 713 2375 1131 2484 
z
M 1019 3438 
Q 1019 3113 1228 2906 
Q 1438 2700 1772 2700 
Q 2097 2700 2305 2904 
Q 2513 3109 2513 3406 
Q 2513 3716 2298 3927 
Q 2084 4138 1766 4138 
Q 1444 4138 1231 3931 
Q 1019 3725 1019 3438 
z
M 838 1322 
Q 838 1081 952 856 
Q 1066 631 1291 507 
Q 1516 384 1775 384 
Q 2178 384 2440 643 
Q 2703 903 2703 1303 
Q 2703 1709 2433 1975 
Q 2163 2241 1756 2241 
Q 1359 2241 1098 1978 
Q 838 1716 838 1322 
z
" transform="scale(0.015625)"/>
       </defs>
       <use xlink:href="#ArialMT-50"/>
       <use xlink:href="#ArialMT-30" transform="translate(66.699219 0)"/>
       <use xlink:href="#ArialMT-31" transform="translate(122.314453 0)"/>
       <use xlink:href="#ArialMT-38" transform="translate(177.929688 0)"/>
      </g>
     </g>
    </g>
    <g id="xtick_11">
     <g id="text_11">
      <!-- P020 -->
      <g style="fill: #262626" transform="translate(359.433001 394.133068) rotate(-90) scale(0.12 -0.12)">
       <use xlink:href="#ArialMT-50"/>
       <use xlink:href="#ArialMT-30" transform="translate(66.699219 0)"/>
       <use xlink:href="#ArialMT-32" transform="translate(122.314453 0)"/>
       <use xlink:href="#ArialMT-30" transform="translate(177.929688 0)"/>
      </g>
     </g>
    </g>
    <g id="xtick_12">
     <g id="text_12">
      <!-- P025 -->
      <g style="fill: #262626" transform="translate(388.733198 394.133068) rotate(-90) scale(0.12 -0.12)">
       <use xlink:href="#ArialMT-50"/>
       <use xlink:href="#ArialMT-30" transform="translate(66.699219 0)"/>
       <use xlink:href="#ArialMT-32" transform="translate(122.314453 0)"/>
       <use xlink:href="#ArialMT-35" transform="translate(177.929688 0)"/>
      </g>
     </g>
    </g>
    <g id="xtick_13">
     <g id="text_13">
      <!-- P006 -->
      <g style="fill: #262626" transform="translate(418.033395 394.133068) rotate(-90) scale(0.12 -0.12)">
       <use xlink:href="#ArialMT-50"/>
       <use xlink:href="#ArialMT-30" transform="translate(66.699219 0)"/>
       <use xlink:href="#ArialMT-30" transform="translate(122.314453 0)"/>
       <use xlink:href="#ArialMT-36" transform="translate(177.929688 0)"/>
      </g>
     </g>
    </g>
    <g id="xtick_14">
     <g id="text_14">
      <!-- P021 -->
      <g style="fill: #262626" transform="translate(447.333591 394.133068) rotate(-90) scale(0.12 -0.12)">
       <use xlink:href="#ArialMT-50"/>
       <use xlink:href="#ArialMT-30" transform="translate(66.699219 0)"/>
       <use xlink:href="#ArialMT-32" transform="translate(122.314453 0)"/>
       <use xlink:href="#ArialMT-31" transform="translate(177.929688 0)"/>
      </g>
     </g>
    </g>
    <g id="xtick_15">
     <g id="text_15">
      <!-- P022 -->
      <g style="fill: #262626" transform="translate(476.633788 394.133068) rotate(-90) scale(0.12 -0.12)">
       <use xlink:href="#ArialMT-50"/>
       <use xlink:href="#ArialMT-30" transform="translate(66.699219 0)"/>
       <use xlink:href="#ArialMT-32" transform="translate(122.314453 0)"/>
       <use xlink:href="#ArialMT-32" transform="translate(177.929688 0)"/>
      </g>
     </g>
    </g>
    <g id="xtick_16">
     <g id="text_16">
      <!-- P010 -->
      <g style="fill: #262626" transform="translate(505.933984 394.133068) rotate(-90) scale(0.12 -0.12)">
       <use xlink:href="#ArialMT-50"/>
       <use xlink:href="#ArialMT-30" transform="translate(66.699219 0)"/>
       <use xlink:href="#ArialMT-31" transform="translate(122.314453 0)"/>
       <use xlink:href="#ArialMT-30" transform="translate(177.929688 0)"/>
      </g>
     </g>
    </g>
    <g id="xtick_17">
     <g id="text_17">
      <!-- P028 -->
      <g style="fill: #262626" transform="translate(535.234181 394.133068) rotate(-90) scale(0.12 -0.12)">
       <use xlink:href="#ArialMT-50"/>
       <use xlink:href="#ArialMT-30" transform="translate(66.699219 0)"/>
       <use xlink:href="#ArialMT-32" transform="translate(122.314453 0)"/>
       <use xlink:href="#ArialMT-38" transform="translate(177.929688 0)"/>
      </g>
     </g>
    </g>
    <g id="xtick_18">
     <g id="text_18">
      <!-- P002 -->
      <g style="fill: #262626" transform="translate(564.534377 394.133068) rotate(-90) scale(0.12 -0.12)">
       <use xlink:href="#ArialMT-50"/>
       <use xlink:href="#ArialMT-30" transform="translate(66.699219 0)"/>
       <use xlink:href="#ArialMT-30" transform="translate(122.314453 0)"/>
       <use xlink:href="#ArialMT-32" transform="translate(177.929688 0)"/>
      </g>
     </g>
    </g>
    <g id="xtick_19">
     <g id="text_19">
      <!-- P008 -->
      <g style="fill: #262626" transform="translate(593.834574 394.133068) rotate(-90) scale(0.12 -0.12)">
       <use xlink:href="#ArialMT-50"/>
       <use xlink:href="#ArialMT-30" transform="translate(66.699219 0)"/>
       <use xlink:href="#ArialMT-30" transform="translate(122.314453 0)"/>
       <use xlink:href="#ArialMT-38" transform="translate(177.929688 0)"/>
      </g>
     </g>
    </g>
    <g id="xtick_20">
     <g id="text_20">
      <!-- P005 -->
      <g style="fill: #262626" transform="translate(623.13477 394.133068) rotate(-90) scale(0.12 -0.12)">
       <use xlink:href="#ArialMT-50"/>
       <use xlink:href="#ArialMT-30" transform="translate(66.699219 0)"/>
       <use xlink:href="#ArialMT-30" transform="translate(122.314453 0)"/>
       <use xlink:href="#ArialMT-35" transform="translate(177.929688 0)"/>
      </g>
     </g>
    </g>
    <g id="xtick_21">
     <g id="text_21">
      <!-- P037 -->
      <g style="fill: #262626" transform="translate(652.434967 394.133068) rotate(-90) scale(0.12 -0.12)">
       <use xlink:href="#ArialMT-50"/>
       <use xlink:href="#ArialMT-30" transform="translate(66.699219 0)"/>
       <use xlink:href="#ArialMT-33" transform="translate(122.314453 0)"/>
       <use xlink:href="#ArialMT-37" transform="translate(177.929688 0)"/>
      </g>
     </g>
    </g>
    <g id="xtick_22">
     <g id="text_22">
      <!-- P001 -->
      <g style="fill: #262626" transform="translate(681.735164 394.133068) rotate(-90) scale(0.12 -0.12)">
       <use xlink:href="#ArialMT-50"/>
       <use xlink:href="#ArialMT-30" transform="translate(66.699219 0)"/>
       <use xlink:href="#ArialMT-30" transform="translate(122.314453 0)"/>
       <use xlink:href="#ArialMT-31" transform="translate(177.929688 0)"/>
      </g>
     </g>
    </g>
    <g id="xtick_23">
     <g id="text_23">
      <!-- P013 -->
      <g style="fill: #262626" transform="translate(711.03536 394.133068) rotate(-90) scale(0.12 -0.12)">
       <use xlink:href="#ArialMT-50"/>
       <use xlink:href="#ArialMT-30" transform="translate(66.699219 0)"/>
       <use xlink:href="#ArialMT-31" transform="translate(122.314453 0)"/>
       <use xlink:href="#ArialMT-33" transform="translate(177.929688 0)"/>
      </g>
     </g>
    </g>
    <g id="xtick_24">
     <g id="text_24">
      <!-- P036 -->
      <g style="fill: #262626" transform="translate(740.335557 394.133068) rotate(-90) scale(0.12 -0.12)">
       <use xlink:href="#ArialMT-50"/>
       <use xlink:href="#ArialMT-30" transform="translate(66.699219 0)"/>
       <use xlink:href="#ArialMT-33" transform="translate(122.314453 0)"/>
       <use xlink:href="#ArialMT-36" transform="translate(177.929688 0)"/>
      </g>
     </g>
    </g>
    <g id="xtick_25">
     <g id="text_25">
      <!-- P003 -->
      <g style="fill: #262626" transform="translate(769.635753 394.133068) rotate(-90) scale(0.12 -0.12)">
       <use xlink:href="#ArialMT-50"/>
       <use xlink:href="#ArialMT-30" transform="translate(66.699219 0)"/>
       <use xlink:href="#ArialMT-30" transform="translate(122.314453 0)"/>
       <use xlink:href="#ArialMT-33" transform="translate(177.929688 0)"/>
      </g>
     </g>
    </g>
    <g id="xtick_26">
     <g id="text_26">
      <!-- P007 -->
      <g style="fill: #262626" transform="translate(798.93595 394.133068) rotate(-90) scale(0.12 -0.12)">
       <use xlink:href="#ArialMT-50"/>
       <use xlink:href="#ArialMT-30" transform="translate(66.699219 0)"/>
       <use xlink:href="#ArialMT-30" transform="translate(122.314453 0)"/>
       <use xlink:href="#ArialMT-37" transform="translate(177.929688 0)"/>
      </g>
     </g>
    </g>
    <g id="xtick_27">
     <g id="text_27">
      <!-- P011 -->
      <g style="fill: #262626" transform="translate(828.236146 393.248068) rotate(-90) scale(0.12 -0.12)">
       <use xlink:href="#ArialMT-50"/>
       <use xlink:href="#ArialMT-30" transform="translate(66.699219 0)"/>
       <use xlink:href="#ArialMT-31" transform="translate(122.314453 0)"/>
       <use xlink:href="#ArialMT-31" transform="translate(170.554688 0)"/>
      </g>
     </g>
    </g>
    <g id="xtick_28">
     <g id="text_28">
      <!-- P009 -->
      <g style="fill: #262626" transform="translate(857.536343 394.133068) rotate(-90) scale(0.12 -0.12)">
       <use xlink:href="#ArialMT-50"/>
       <use xlink:href="#ArialMT-30" transform="translate(66.699219 0)"/>
       <use xlink:href="#ArialMT-30" transform="translate(122.314453 0)"/>
       <use xlink:href="#ArialMT-39" transform="translate(177.929688 0)"/>
      </g>
     </g>
    </g>
    <g id="xtick_29">
     <g id="text_29">
      <!-- P035 -->
      <g style="fill: #262626" transform="translate(886.836539 394.133068) rotate(-90) scale(0.12 -0.12)">
       <use xlink:href="#ArialMT-50"/>
       <use xlink:href="#ArialMT-30" transform="translate(66.699219 0)"/>
       <use xlink:href="#ArialMT-33" transform="translate(122.314453 0)"/>
       <use xlink:href="#ArialMT-35" transform="translate(177.929688 0)"/>
      </g>
     </g>
    </g>
    <g id="xtick_30">
     <g id="text_30">
      <!-- P026 -->
      <g style="fill: #262626" transform="translate(916.136736 394.133068) rotate(-90) scale(0.12 -0.12)">
       <use xlink:href="#ArialMT-50"/>
       <use xlink:href="#ArialMT-30" transform="translate(66.699219 0)"/>
       <use xlink:href="#ArialMT-32" transform="translate(122.314453 0)"/>
       <use xlink:href="#ArialMT-36" transform="translate(177.929688 0)"/>
      </g>
     </g>
    </g>
    <g id="xtick_31">
     <g id="text_31">
      <!-- P004 -->
      <g style="fill: #262626" transform="translate(945.436933 394.133068) rotate(-90) scale(0.12 -0.12)">
       <defs>
        <path id="ArialMT-34" d="M 2069 0 
L 2069 1097 
L 81 1097 
L 81 1613 
L 2172 4581 
L 2631 4581 
L 2631 1613 
L 3250 1613 
L 3250 1097 
L 2631 1097 
L 2631 0 
L 2069 0 
z
M 2069 1613 
L 2069 3678 
L 634 1613 
L 2069 1613 
z
" transform="scale(0.015625)"/>
       </defs>
       <use xlink:href="#ArialMT-50"/>
       <use xlink:href="#ArialMT-30" transform="translate(66.699219 0)"/>
       <use xlink:href="#ArialMT-30" transform="translate(122.314453 0)"/>
       <use xlink:href="#ArialMT-34" transform="translate(177.929688 0)"/>
      </g>
     </g>
    </g>
    <g id="xtick_32">
     <g id="text_32">
      <!-- P012 -->
      <g style="fill: #262626" transform="translate(974.737129 394.133068) rotate(-90) scale(0.12 -0.12)">
       <use xlink:href="#ArialMT-50"/>
       <use xlink:href="#ArialMT-30" transform="translate(66.699219 0)"/>
       <use xlink:href="#ArialMT-31" transform="translate(122.314453 0)"/>
       <use xlink:href="#ArialMT-32" transform="translate(177.929688 0)"/>
      </g>
     </g>
    </g>
    <g id="xtick_33">
     <g id="text_33">
      <!-- P034 -->
      <g style="fill: #262626" transform="translate(1004.037326 394.133068) rotate(-90) scale(0.12 -0.12)">
       <use xlink:href="#ArialMT-50"/>
       <use xlink:href="#ArialMT-30" transform="translate(66.699219 0)"/>
       <use xlink:href="#ArialMT-33" transform="translate(122.314453 0)"/>
       <use xlink:href="#ArialMT-34" transform="translate(177.929688 0)"/>
      </g>
     </g>
    </g>
    <g id="xtick_34">
     <g id="text_34">
      <!-- P023 -->
      <g style="fill: #262626" transform="translate(1033.337522 394.133068) rotate(-90) scale(0.12 -0.12)">
       <use xlink:href="#ArialMT-50"/>
       <use xlink:href="#ArialMT-30" transform="translate(66.699219 0)"/>
       <use xlink:href="#ArialMT-32" transform="translate(122.314453 0)"/>
       <use xlink:href="#ArialMT-33" transform="translate(177.929688 0)"/>
      </g>
     </g>
    </g>
    <g id="xtick_35">
     <g id="text_35">
      <!-- P033 -->
      <g style="fill: #262626" transform="translate(1062.637719 394.133068) rotate(-90) scale(0.12 -0.12)">
       <use xlink:href="#ArialMT-50"/>
       <use xlink:href="#ArialMT-30" transform="translate(66.699219 0)"/>
       <use xlink:href="#ArialMT-33" transform="translate(122.314453 0)"/>
       <use xlink:href="#ArialMT-33" transform="translate(177.929688 0)"/>
      </g>
     </g>
    </g>
    <g id="xtick_36">
     <g id="text_36">
      <!-- P024 -->
      <g style="fill: #262626" transform="translate(1091.937915 394.133068) rotate(-90) scale(0.12 -0.12)">
       <use xlink:href="#ArialMT-50"/>
       <use xlink:href="#ArialMT-30" transform="translate(66.699219 0)"/>
       <use xlink:href="#ArialMT-32" transform="translate(122.314453 0)"/>
       <use xlink:href="#ArialMT-34" transform="translate(177.929688 0)"/>
      </g>
     </g>
    </g>
    <g id="xtick_37">
     <g id="text_37">
      <!-- P014 -->
      <g style="fill: #262626" transform="translate(1121.238112 394.133068) rotate(-90) scale(0.12 -0.12)">
       <use xlink:href="#ArialMT-50"/>
       <use xlink:href="#ArialMT-30" transform="translate(66.699219 0)"/>
       <use xlink:href="#ArialMT-31" transform="translate(122.314453 0)"/>
       <use xlink:href="#ArialMT-34" transform="translate(177.929688 0)"/>
      </g>
     </g>
    </g>
    <g id="text_38">
     <!-- Project ID -->
     <g style="fill: #262626" transform="translate(555.612386 409.585568) scale(0.16 -0.16)">
      <defs>
       <path id="ArialMT-72" d="M 416 0 
L 416 3319 
L 922 3319 
L 922 2816 
Q 1116 3169 1280 3281 
Q 1444 3394 1641 3394 
Q 1925 3394 2219 3213 
L 2025 2691 
Q 1819 2813 1613 2813 
Q 1428 2813 1281 2702 
Q 1134 2591 1072 2394 
Q 978 2094 978 1738 
L 978 0 
L 416 0 
z
" transform="scale(0.015625)"/>
       <path id="ArialMT-6f" d="M 213 1659 
Q 213 2581 725 3025 
Q 1153 3394 1769 3394 
Q 2453 3394 2887 2945 
Q 3322 2497 3322 1706 
Q 3322 1066 3130 698 
Q 2938 331 2570 128 
Q 2203 -75 1769 -75 
Q 1072 -75 642 372 
Q 213 819 213 1659 
z
M 791 1659 
Q 791 1022 1069 705 
Q 1347 388 1769 388 
Q 2188 388 2466 706 
Q 2744 1025 2744 1678 
Q 2744 2294 2464 2611 
Q 2184 2928 1769 2928 
Q 1347 2928 1069 2612 
Q 791 2297 791 1659 
z
" transform="scale(0.015625)"/>
       <path id="ArialMT-6a" d="M 419 3928 
L 419 4581 
L 981 4581 
L 981 3928 
L 419 3928 
z
M -294 -1288 
L -188 -809 
Q -19 -853 78 -853 
Q 250 -853 334 -739 
Q 419 -625 419 -169 
L 419 3319 
L 981 3319 
L 981 -181 
Q 981 -794 822 -1034 
Q 619 -1347 147 -1347 
Q -81 -1347 -294 -1288 
z
" transform="scale(0.015625)"/>
       <path id="ArialMT-65" d="M 2694 1069 
L 3275 997 
Q 3138 488 2766 206 
Q 2394 -75 1816 -75 
Q 1088 -75 661 373 
Q 234 822 234 1631 
Q 234 2469 665 2931 
Q 1097 3394 1784 3394 
Q 2450 3394 2872 2941 
Q 3294 2488 3294 1666 
Q 3294 1616 3291 1516 
L 816 1516 
Q 847 969 1125 678 
Q 1403 388 1819 388 
Q 2128 388 2347 550 
Q 2566 713 2694 1069 
z
M 847 1978 
L 2700 1978 
Q 2663 2397 2488 2606 
Q 2219 2931 1791 2931 
Q 1403 2931 1139 2672 
Q 875 2413 847 1978 
z
" transform="scale(0.015625)"/>
       <path id="ArialMT-63" d="M 2588 1216 
L 3141 1144 
Q 3050 572 2676 248 
Q 2303 -75 1759 -75 
Q 1078 -75 664 370 
Q 250 816 250 1647 
Q 250 2184 428 2587 
Q 606 2991 970 3192 
Q 1334 3394 1763 3394 
Q 2303 3394 2647 3120 
Q 2991 2847 3088 2344 
L 2541 2259 
Q 2463 2594 2264 2762 
Q 2066 2931 1784 2931 
Q 1359 2931 1093 2626 
Q 828 2322 828 1663 
Q 828 994 1084 691 
Q 1341 388 1753 388 
Q 2084 388 2306 591 
Q 2528 794 2588 1216 
z
" transform="scale(0.015625)"/>
       <path id="ArialMT-74" d="M 1650 503 
L 1731 6 
Q 1494 -44 1306 -44 
Q 1000 -44 831 53 
Q 663 150 594 308 
Q 525 466 525 972 
L 525 2881 
L 113 2881 
L 113 3319 
L 525 3319 
L 525 4141 
L 1084 4478 
L 1084 3319 
L 1650 3319 
L 1650 2881 
L 1084 2881 
L 1084 941 
Q 1084 700 1114 631 
Q 1144 563 1211 522 
Q 1278 481 1403 481 
Q 1497 481 1650 503 
z
" transform="scale(0.015625)"/>
       <path id="ArialMT-20" transform="scale(0.015625)"/>
       <path id="ArialMT-49" d="M 597 0 
L 597 4581 
L 1203 4581 
L 1203 0 
L 597 0 
z
" transform="scale(0.015625)"/>
       <path id="ArialMT-44" d="M 494 0 
L 494 4581 
L 2072 4581 
Q 2606 4581 2888 4516 
Q 3281 4425 3559 4188 
Q 3922 3881 4101 3404 
Q 4281 2928 4281 2316 
Q 4281 1794 4159 1391 
Q 4038 988 3847 723 
Q 3656 459 3429 307 
Q 3203 156 2883 78 
Q 2563 0 2147 0 
L 494 0 
z
M 1100 541 
L 2078 541 
Q 2531 541 2789 625 
Q 3047 709 3200 863 
Q 3416 1078 3536 1442 
Q 3656 1806 3656 2325 
Q 3656 3044 3420 3430 
Q 3184 3816 2847 3947 
Q 2603 4041 2063 4041 
L 1100 4041 
L 1100 541 
z
" transform="scale(0.015625)"/>
      </defs>
      <use xlink:href="#ArialMT-50"/>
      <use xlink:href="#ArialMT-72" transform="translate(66.699219 0)"/>
      <use xlink:href="#ArialMT-6f" transform="translate(100 0)"/>
      <use xlink:href="#ArialMT-6a" transform="translate(155.615234 0)"/>
      <use xlink:href="#ArialMT-65" transform="translate(177.832031 0)"/>
      <use xlink:href="#ArialMT-63" transform="translate(233.447266 0)"/>
      <use xlink:href="#ArialMT-74" transform="translate(283.447266 0)"/>
      <use xlink:href="#ArialMT-20" transform="translate(311.230469 0)"/>
      <use xlink:href="#ArialMT-49" transform="translate(339.013672 0)"/>
      <use xlink:href="#ArialMT-44" transform="translate(366.796875 0)"/>
     </g>
    </g>
   </g>
   <g id="matplotlib.axis_2">
    <g id="ytick_1">
     <g id="text_39">
      <!-- 0 -->
      <g style="fill: #262626" transform="translate(32.505625 360.904006) scale(0.12 -0.12)">
       <use xlink:href="#ArialMT-30"/>
      </g>
     </g>
    </g>
    <g id="ytick_2">
     <g id="text_40">
      <!-- 3 -->
      <g style="fill: #262626" transform="translate(32.505625 325.796935) scale(0.12 -0.12)">
       <use xlink:href="#ArialMT-33"/>
      </g>
     </g>
    </g>
    <g id="ytick_3">
     <g id="text_41">
      <!-- 6 -->
      <g style="fill: #262626" transform="translate(32.505625 290.689864) scale(0.12 -0.12)">
       <use xlink:href="#ArialMT-36"/>
      </g>
     </g>
    </g>
    <g id="ytick_4">
     <g id="text_42">
      <!-- 9 -->
      <g style="fill: #262626" transform="translate(32.505625 255.582794) scale(0.12 -0.12)">
       <use xlink:href="#ArialMT-39"/>
      </g>
     </g>
    </g>
    <g id="ytick_5">
     <g id="text_43">
      <!-- 12 -->
      <g style="fill: #262626" transform="translate(25.8325 220.475723) scale(0.12 -0.12)">
       <use xlink:href="#ArialMT-31"/>
       <use xlink:href="#ArialMT-32" transform="translate(55.615234 0)"/>
      </g>
     </g>
    </g>
    <g id="ytick_6">
     <g id="text_44">
      <!-- 15 -->
      <g style="fill: #262626" transform="translate(25.8325 185.368652) scale(0.12 -0.12)">
       <use xlink:href="#ArialMT-31"/>
       <use xlink:href="#ArialMT-35" transform="translate(55.615234 0)"/>
      </g>
     </g>
    </g>
    <g id="ytick_7">
     <g id="text_45">
      <!-- 18 -->
      <g style="fill: #262626" transform="translate(25.8325 150.261581) scale(0.12 -0.12)">
       <use xlink:href="#ArialMT-31"/>
       <use xlink:href="#ArialMT-38" transform="translate(55.615234 0)"/>
      </g>
     </g>
    </g>
    <g id="ytick_8">
     <g id="text_46">
      <!-- 21 -->
      <g style="fill: #262626" transform="translate(25.8325 115.154511) scale(0.12 -0.12)">
       <use xlink:href="#ArialMT-32"/>
       <use xlink:href="#ArialMT-31" transform="translate(55.615234 0)"/>
      </g>
     </g>
    </g>
    <g id="ytick_9">
     <g id="text_47">
      <!-- 24 -->
      <g style="fill: #262626" transform="translate(25.8325 80.04744) scale(0.12 -0.12)">
       <use xlink:href="#ArialMT-32"/>
       <use xlink:href="#ArialMT-34" transform="translate(55.615234 0)"/>
      </g>
     </g>
    </g>
    <g id="ytick_10">
     <g id="text_48">
      <!-- 27 -->
      <g style="fill: #262626" transform="translate(25.8325 44.940369) scale(0.12 -0.12)">
       <use xlink:href="#ArialMT-32"/>
       <use xlink:href="#ArialMT-37" transform="translate(55.615234 0)"/>
      </g>
     </g>
    </g>
    <g id="text_49">
     <!-- Times Listed in Student Preferences -->
     <g style="fill: #262626" transform="translate(18.6525 319.373409) rotate(-90) scale(0.16 -0.16)">
      <defs>
       <path id="ArialMT-54" d="M 1659 0 
L 1659 4041 
L 150 4041 
L 150 4581 
L 3781 4581 
L 3781 4041 
L 2266 4041 
L 2266 0 
L 1659 0 
z
" transform="scale(0.015625)"/>
       <path id="ArialMT-69" d="M 425 3934 
L 425 4581 
L 988 4581 
L 988 3934 
L 425 3934 
z
M 425 0 
L 425 3319 
L 988 3319 
L 988 0 
L 425 0 
z
" transform="scale(0.015625)"/>
       <path id="ArialMT-6d" d="M 422 0 
L 422 3319 
L 925 3319 
L 925 2853 
Q 1081 3097 1340 3245 
Q 1600 3394 1931 3394 
Q 2300 3394 2536 3241 
Q 2772 3088 2869 2813 
Q 3263 3394 3894 3394 
Q 4388 3394 4653 3120 
Q 4919 2847 4919 2278 
L 4919 0 
L 4359 0 
L 4359 2091 
Q 4359 2428 4304 2576 
Q 4250 2725 4106 2815 
Q 3963 2906 3769 2906 
Q 3419 2906 3187 2673 
Q 2956 2441 2956 1928 
L 2956 0 
L 2394 0 
L 2394 2156 
Q 2394 2531 2256 2718 
Q 2119 2906 1806 2906 
Q 1569 2906 1367 2781 
Q 1166 2656 1075 2415 
Q 984 2175 984 1722 
L 984 0 
L 422 0 
z
" transform="scale(0.015625)"/>
       <path id="ArialMT-73" d="M 197 991 
L 753 1078 
Q 800 744 1014 566 
Q 1228 388 1613 388 
Q 2000 388 2187 545 
Q 2375 703 2375 916 
Q 2375 1106 2209 1216 
Q 2094 1291 1634 1406 
Q 1016 1563 777 1677 
Q 538 1791 414 1992 
Q 291 2194 291 2438 
Q 291 2659 392 2848 
Q 494 3038 669 3163 
Q 800 3259 1026 3326 
Q 1253 3394 1513 3394 
Q 1903 3394 2198 3281 
Q 2494 3169 2634 2976 
Q 2775 2784 2828 2463 
L 2278 2388 
Q 2241 2644 2061 2787 
Q 1881 2931 1553 2931 
Q 1166 2931 1000 2803 
Q 834 2675 834 2503 
Q 834 2394 903 2306 
Q 972 2216 1119 2156 
Q 1203 2125 1616 2013 
Q 2213 1853 2448 1751 
Q 2684 1650 2818 1456 
Q 2953 1263 2953 975 
Q 2953 694 2789 445 
Q 2625 197 2315 61 
Q 2006 -75 1616 -75 
Q 969 -75 630 194 
Q 291 463 197 991 
z
" transform="scale(0.015625)"/>
       <path id="ArialMT-4c" d="M 469 0 
L 469 4581 
L 1075 4581 
L 1075 541 
L 3331 541 
L 3331 0 
L 469 0 
z
" transform="scale(0.015625)"/>
       <path id="ArialMT-64" d="M 2575 0 
L 2575 419 
Q 2259 -75 1647 -75 
Q 1250 -75 917 144 
Q 584 363 401 755 
Q 219 1147 219 1656 
Q 219 2153 384 2558 
Q 550 2963 881 3178 
Q 1213 3394 1622 3394 
Q 1922 3394 2156 3267 
Q 2391 3141 2538 2938 
L 2538 4581 
L 3097 4581 
L 3097 0 
L 2575 0 
z
M 797 1656 
Q 797 1019 1065 703 
Q 1334 388 1700 388 
Q 2069 388 2326 689 
Q 2584 991 2584 1609 
Q 2584 2291 2321 2609 
Q 2059 2928 1675 2928 
Q 1300 2928 1048 2622 
Q 797 2316 797 1656 
z
" transform="scale(0.015625)"/>
       <path id="ArialMT-6e" d="M 422 0 
L 422 3319 
L 928 3319 
L 928 2847 
Q 1294 3394 1984 3394 
Q 2284 3394 2536 3286 
Q 2788 3178 2913 3003 
Q 3038 2828 3088 2588 
Q 3119 2431 3119 2041 
L 3119 0 
L 2556 0 
L 2556 2019 
Q 2556 2363 2490 2533 
Q 2425 2703 2258 2804 
Q 2091 2906 1866 2906 
Q 1506 2906 1245 2678 
Q 984 2450 984 1813 
L 984 0 
L 422 0 
z
" transform="scale(0.015625)"/>
       <path id="ArialMT-53" d="M 288 1472 
L 859 1522 
Q 900 1178 1048 958 
Q 1197 738 1509 602 
Q 1822 466 2213 466 
Q 2559 466 2825 569 
Q 3091 672 3220 851 
Q 3350 1031 3350 1244 
Q 3350 1459 3225 1620 
Q 3100 1781 2813 1891 
Q 2628 1963 1997 2114 
Q 1366 2266 1113 2400 
Q 784 2572 623 2826 
Q 463 3081 463 3397 
Q 463 3744 659 4045 
Q 856 4347 1234 4503 
Q 1613 4659 2075 4659 
Q 2584 4659 2973 4495 
Q 3363 4331 3572 4012 
Q 3781 3694 3797 3291 
L 3216 3247 
Q 3169 3681 2898 3903 
Q 2628 4125 2100 4125 
Q 1550 4125 1298 3923 
Q 1047 3722 1047 3438 
Q 1047 3191 1225 3031 
Q 1400 2872 2139 2705 
Q 2878 2538 3153 2413 
Q 3553 2228 3743 1945 
Q 3934 1663 3934 1294 
Q 3934 928 3725 604 
Q 3516 281 3123 101 
Q 2731 -78 2241 -78 
Q 1619 -78 1198 103 
Q 778 284 539 648 
Q 300 1013 288 1472 
z
" transform="scale(0.015625)"/>
       <path id="ArialMT-75" d="M 2597 0 
L 2597 488 
Q 2209 -75 1544 -75 
Q 1250 -75 995 37 
Q 741 150 617 320 
Q 494 491 444 738 
Q 409 903 409 1263 
L 409 3319 
L 972 3319 
L 972 1478 
Q 972 1038 1006 884 
Q 1059 663 1231 536 
Q 1403 409 1656 409 
Q 1909 409 2131 539 
Q 2353 669 2445 892 
Q 2538 1116 2538 1541 
L 2538 3319 
L 3100 3319 
L 3100 0 
L 2597 0 
z
" transform="scale(0.015625)"/>
       <path id="ArialMT-66" d="M 556 0 
L 556 2881 
L 59 2881 
L 59 3319 
L 556 3319 
L 556 3672 
Q 556 4006 616 4169 
Q 697 4388 901 4523 
Q 1106 4659 1475 4659 
Q 1713 4659 2000 4603 
L 1916 4113 
Q 1741 4144 1584 4144 
Q 1328 4144 1222 4034 
Q 1116 3925 1116 3625 
L 1116 3319 
L 1763 3319 
L 1763 2881 
L 1116 2881 
L 1116 0 
L 556 0 
z
" transform="scale(0.015625)"/>
      </defs>
      <use xlink:href="#ArialMT-54"/>
      <use xlink:href="#ArialMT-69" transform="translate(57.333984 0)"/>
      <use xlink:href="#ArialMT-6d" transform="translate(79.550781 0)"/>
      <use xlink:href="#ArialMT-65" transform="translate(162.851562 0)"/>
      <use xlink:href="#ArialMT-73" transform="translate(218.466797 0)"/>
      <use xlink:href="#ArialMT-20" transform="translate(268.466797 0)"/>
      <use xlink:href="#ArialMT-4c" transform="translate(296.25 0)"/>
      <use xlink:href="#ArialMT-69" transform="translate(351.865234 0)"/>
      <use xlink:href="#ArialMT-73" transform="translate(374.082031 0)"/>
      <use xlink:href="#ArialMT-74" transform="translate(424.082031 0)"/>
      <use xlink:href="#ArialMT-65" transform="translate(451.865234 0)"/>
      <use xlink:href="#ArialMT-64" transform="translate(507.480469 0)"/>
      <use xlink:href="#ArialMT-20" transform="translate(563.095703 0)"/>
      <use xlink:href="#ArialMT-69" transform="translate(590.878906 0)"/>
      <use xlink:href="#ArialMT-6e" transform="translate(613.095703 0)"/>
      <use xlink:href="#ArialMT-20" transform="translate(668.710938 0)"/>
      <use xlink:href="#ArialMT-53" transform="translate(696.494141 0)"/>
      <use xlink:href="#ArialMT-74" transform="translate(763.193359 0)"/>
      <use xlink:href="#ArialMT-75" transform="translate(790.976562 0)"/>
      <use xlink:href="#ArialMT-64" transform="translate(846.591797 0)"/>
      <use xlink:href="#ArialMT-65" transform="translate(902.207031 0)"/>
      <use xlink:href="#ArialMT-6e" transform="translate(957.822266 0)"/>
      <use xlink:href="#ArialMT-74" transform="translate(1013.4375 0)"/>
      <use xlink:href="#ArialMT-20" transform="translate(1041.220703 0)"/>
      <use xlink:href="#ArialMT-50" transform="translate(1069.003906 0)"/>
      <use xlink:href="#ArialMT-72" transform="translate(1135.703125 0)"/>
      <use xlink:href="#ArialMT-65" transform="translate(1169.003906 0)"/>
      <use xlink:href="#ArialMT-66" transform="translate(1224.619141 0)"/>
      <use xlink:href="#ArialMT-65" transform="translate(1252.402344 0)"/>
      <use xlink:href="#ArialMT-72" transform="translate(1308.017578 0)"/>
      <use xlink:href="#ArialMT-65" transform="translate(1341.318359 0)"/>
      <use xlink:href="#ArialMT-6e" transform="translate(1396.933594 0)"/>
      <use xlink:href="#ArialMT-63" transform="translate(1452.548828 0)"/>
      <use xlink:href="#ArialMT-65" transform="translate(1502.548828 0)"/>
      <use xlink:href="#ArialMT-73" transform="translate(1558.164062 0)"/>
     </g>
    </g>
   </g>
   <g id="patch_3">
    <path d="M 51.60877 356.609318 
L 75.048927 356.609318 
L 75.048927 40.645682 
L 51.60877 40.645682 
z
" clip-path="url(#pc408e9859c)" style="fill: #3274a1; stroke: #ffffff; stroke-linejoin: miter"/>
   </g>
   <g id="patch_4">
    <path d="M 80.908966 356.609318 
L 104.349123 356.609318 
L 104.349123 99.157466 
L 80.908966 99.157466 
z
" clip-path="url(#pc408e9859c)" style="fill: #3274a1; stroke: #ffffff; stroke-linejoin: miter"/>
   </g>
   <g id="patch_5">
    <path d="M 110.209163 356.609318 
L 133.64932 356.609318 
L 133.64932 99.157466 
L 110.209163 99.157466 
z
" clip-path="url(#pc408e9859c)" style="fill: #3274a1; stroke: #ffffff; stroke-linejoin: miter"/>
   </g>
   <g id="patch_6">
    <path d="M 139.509359 356.609318 
L 162.949517 356.609318 
L 162.949517 110.859823 
L 139.509359 110.859823 
z
" clip-path="url(#pc408e9859c)" style="fill: #3274a1; stroke: #ffffff; stroke-linejoin: miter"/>
   </g>
   <g id="patch_7">
    <path d="M 168.809556 356.609318 
L 192.249713 356.609318 
L 192.249713 110.859823 
L 168.809556 110.859823 
z
" clip-path="url(#pc408e9859c)" style="fill: #3274a1; stroke: #ffffff; stroke-linejoin: miter"/>
   </g>
   <g id="patch_8">
    <path d="M 198.109752 356.609318 
L 221.54991 356.609318 
L 221.54991 110.859823 
L 198.109752 110.859823 
z
" clip-path="url(#pc408e9859c)" style="fill: #3274a1; stroke: #ffffff; stroke-linejoin: miter"/>
   </g>
   <g id="patch_9">
    <path d="M 227.409949 356.609318 
L 250.850106 356.609318 
L 250.850106 110.859823 
L 227.409949 110.859823 
z
" clip-path="url(#pc408e9859c)" style="fill: #3274a1; stroke: #ffffff; stroke-linejoin: miter"/>
   </g>
   <g id="patch_10">
    <path d="M 256.710146 356.609318 
L 280.150303 356.609318 
L 280.150303 134.264537 
L 256.710146 134.264537 
z
" clip-path="url(#pc408e9859c)" style="fill: #3274a1; stroke: #ffffff; stroke-linejoin: miter"/>
   </g>
   <g id="patch_11">
    <path d="M 286.010342 356.609318 
L 309.450499 356.609318 
L 309.450499 134.264537 
L 286.010342 134.264537 
z
" clip-path="url(#pc408e9859c)" style="fill: #3274a1; stroke: #ffffff; stroke-linejoin: miter"/>
   </g>
   <g id="patch_12">
    <path d="M 315.310539 356.609318 
L 338.750696 356.609318 
L 338.750696 134.264537 
L 315.310539 134.264537 
z
" clip-path="url(#pc408e9859c)" style="fill: #3274a1; stroke: #ffffff; stroke-linejoin: miter"/>
   </g>
   <g id="patch_13">
    <path d="M 344.610735 356.609318 
L 368.050893 356.609318 
L 368.050893 134.264537 
L 344.610735 134.264537 
z
" clip-path="url(#pc408e9859c)" style="fill: #3274a1; stroke: #ffffff; stroke-linejoin: miter"/>
   </g>
   <g id="patch_14">
    <path d="M 373.910932 356.609318 
L 397.351089 356.609318 
L 397.351089 134.264537 
L 373.910932 134.264537 
z
" clip-path="url(#pc408e9859c)" style="fill: #3274a1; stroke: #ffffff; stroke-linejoin: miter"/>
   </g>
   <g id="patch_15">
    <path d="M 403.211128 356.609318 
L 426.651286 356.609318 
L 426.651286 134.264537 
L 403.211128 134.264537 
z
" clip-path="url(#pc408e9859c)" style="fill: #3274a1; stroke: #ffffff; stroke-linejoin: miter"/>
   </g>
   <g id="patch_16">
    <path d="M 432.511325 356.609318 
L 455.951482 356.609318 
L 455.951482 145.966894 
L 432.511325 145.966894 
z
" clip-path="url(#pc408e9859c)" style="fill: #3274a1; stroke: #ffffff; stroke-linejoin: miter"/>
   </g>
   <g id="patch_17">
    <path d="M 461.811521 356.609318 
L 485.251679 356.609318 
L 485.251679 145.966894 
L 461.811521 145.966894 
z
" clip-path="url(#pc408e9859c)" style="fill: #3274a1; stroke: #ffffff; stroke-linejoin: miter"/>
   </g>
   <g id="patch_18">
    <path d="M 491.111718 356.609318 
L 514.551875 356.609318 
L 514.551875 145.966894 
L 491.111718 145.966894 
z
" clip-path="url(#pc408e9859c)" style="fill: #3274a1; stroke: #ffffff; stroke-linejoin: miter"/>
   </g>
   <g id="patch_19">
    <path d="M 520.411915 356.609318 
L 543.852072 356.609318 
L 543.852072 157.669251 
L 520.411915 157.669251 
z
" clip-path="url(#pc408e9859c)" style="fill: #3274a1; stroke: #ffffff; stroke-linejoin: miter"/>
   </g>
   <g id="patch_20">
    <path d="M 549.712111 356.609318 
L 573.152268 356.609318 
L 573.152268 157.669251 
L 549.712111 157.669251 
z
" clip-path="url(#pc408e9859c)" style="fill: #3274a1; stroke: #ffffff; stroke-linejoin: miter"/>
   </g>
   <g id="patch_21">
    <path d="M 579.012308 356.609318 
L 602.452465 356.609318 
L 602.452465 169.371608 
L 579.012308 169.371608 
z
" clip-path="url(#pc408e9859c)" style="fill: #3274a1; stroke: #ffffff; stroke-linejoin: miter"/>
   </g>
   <g id="patch_22">
    <path d="M 608.312504 356.609318 
L 631.752662 356.609318 
L 631.752662 169.371608 
L 608.312504 169.371608 
z
" clip-path="url(#pc408e9859c)" style="fill: #3274a1; stroke: #ffffff; stroke-linejoin: miter"/>
   </g>
   <g id="patch_23">
    <path d="M 637.612701 356.609318 
L 661.052858 356.609318 
L 661.052858 181.073965 
L 637.612701 181.073965 
z
" clip-path="url(#pc408e9859c)" style="fill: #3274a1; stroke: #ffffff; stroke-linejoin: miter"/>
   </g>
   <g id="patch_24">
    <path d="M 666.912897 356.609318 
L 690.353055 356.609318 
L 690.353055 181.073965 
L 666.912897 181.073965 
z
" clip-path="url(#pc408e9859c)" style="fill: #3274a1; stroke: #ffffff; stroke-linejoin: miter"/>
   </g>
   <g id="patch_25">
    <path d="M 696.213094 356.609318 
L 719.653251 356.609318 
L 719.653251 181.073965 
L 696.213094 181.073965 
z
" clip-path="url(#pc408e9859c)" style="fill: #3274a1; stroke: #ffffff; stroke-linejoin: miter"/>
   </g>
   <g id="patch_26">
    <path d="M 725.513291 356.609318 
L 748.953448 356.609318 
L 748.953448 181.073965 
L 725.513291 181.073965 
z
" clip-path="url(#pc408e9859c)" style="fill: #3274a1; stroke: #ffffff; stroke-linejoin: miter"/>
   </g>
   <g id="patch_27">
    <path d="M 754.813487 356.609318 
L 778.253644 356.609318 
L 778.253644 192.776322 
L 754.813487 192.776322 
z
" clip-path="url(#pc408e9859c)" style="fill: #3274a1; stroke: #ffffff; stroke-linejoin: miter"/>
   </g>
   <g id="patch_28">
    <path d="M 784.113684 356.609318 
L 807.553841 356.609318 
L 807.553841 192.776322 
L 784.113684 192.776322 
z
" clip-path="url(#pc408e9859c)" style="fill: #3274a1; stroke: #ffffff; stroke-linejoin: miter"/>
   </g>
   <g id="patch_29">
    <path d="M 813.41388 356.609318 
L 836.854037 356.609318 
L 836.854037 192.776322 
L 813.41388 192.776322 
z
" clip-path="url(#pc408e9859c)" style="fill: #3274a1; stroke: #ffffff; stroke-linejoin: miter"/>
   </g>
   <g id="patch_30">
    <path d="M 842.714077 356.609318 
L 866.154234 356.609318 
L 866.154234 192.776322 
L 842.714077 192.776322 
z
" clip-path="url(#pc408e9859c)" style="fill: #3274a1; stroke: #ffffff; stroke-linejoin: miter"/>
   </g>
   <g id="patch_31">
    <path d="M 872.014273 356.609318 
L 895.454431 356.609318 
L 895.454431 204.478678 
L 872.014273 204.478678 
z
" clip-path="url(#pc408e9859c)" style="fill: #3274a1; stroke: #ffffff; stroke-linejoin: miter"/>
   </g>
   <g id="patch_32">
    <path d="M 901.31447 356.609318 
L 924.754627 356.609318 
L 924.754627 204.478678 
L 901.31447 204.478678 
z
" clip-path="url(#pc408e9859c)" style="fill: #3274a1; stroke: #ffffff; stroke-linejoin: miter"/>
   </g>
   <g id="patch_33">
    <path d="M 930.614666 356.609318 
L 954.054824 356.609318 
L 954.054824 204.478678 
L 930.614666 204.478678 
z
" clip-path="url(#pc408e9859c)" style="fill: #3274a1; stroke: #ffffff; stroke-linejoin: miter"/>
   </g>
   <g id="patch_34">
    <path d="M 959.914863 356.609318 
L 983.35502 356.609318 
L 983.35502 216.181035 
L 959.914863 216.181035 
z
" clip-path="url(#pc408e9859c)" style="fill: #3274a1; stroke: #ffffff; stroke-linejoin: miter"/>
   </g>
   <g id="patch_35">
    <path d="M 989.21506 356.609318 
L 1012.655217 356.609318 
L 1012.655217 216.181035 
L 989.21506 216.181035 
z
" clip-path="url(#pc408e9859c)" style="fill: #3274a1; stroke: #ffffff; stroke-linejoin: miter"/>
   </g>
   <g id="patch_36">
    <path d="M 1018.515256 356.609318 
L 1041.955413 356.609318 
L 1041.955413 216.181035 
L 1018.515256 216.181035 
z
" clip-path="url(#pc408e9859c)" style="fill: #3274a1; stroke: #ffffff; stroke-linejoin: miter"/>
   </g>
   <g id="patch_37">
    <path d="M 1047.815453 356.609318 
L 1071.25561 356.609318 
L 1071.25561 227.883392 
L 1047.815453 227.883392 
z
" clip-path="url(#pc408e9859c)" style="fill: #3274a1; stroke: #ffffff; stroke-linejoin: miter"/>
   </g>
   <g id="patch_38">
    <path d="M 1077.115649 356.609318 
L 1100.555807 356.609318 
L 1100.555807 227.883392 
L 1077.115649 227.883392 
z
" clip-path="url(#pc408e9859c)" style="fill: #3274a1; stroke: #ffffff; stroke-linejoin: miter"/>
   </g>
   <g id="patch_39">
    <path d="M 1106.415846 356.609318 
L 1129.856003 356.609318 
L 1129.856003 239.585749 
L 1106.415846 239.585749 
z
" clip-path="url(#pc408e9859c)" style="fill: #3274a1; stroke: #ffffff; stroke-linejoin: miter"/>
   </g>
   <g id="line2d_1">
    <path clip-path="url(#pc408e9859c)" style="fill: none; stroke: #424242; stroke-width: 2.25; stroke-linecap: round"/>
   </g>
   <g id="line2d_2">
    <path clip-path="url(#pc408e9859c)" style="fill: none; stroke: #424242; stroke-width: 2.25; stroke-linecap: round"/>
   </g>
   <g id="line2d_3">
    <path clip-path="url(#pc408e9859c)" style="fill: none; stroke: #424242; stroke-width: 2.25; stroke-linecap: round"/>
   </g>
   <g id="line2d_4">
    <path clip-path="url(#pc408e9859c)" style="fill: none; stroke: #424242; stroke-width: 2.25; stroke-linecap: round"/>
   </g>
   <g id="line2d_5">
    <path clip-path="url(#pc408e9859c)" style="fill: none; stroke: #424242; stroke-width: 2.25; stroke-linecap: round"/>
   </g>
   <g id="line2d_6">
    <path clip-path="url(#pc408e9859c)" style="fill: none; stroke: #424242; stroke-width: 2.25; stroke-linecap: round"/>
   </g>
   <g id="line2d_7">
    <path clip-path="url(#pc408e9859c)" style="fill: none; stroke: #424242; stroke-width: 2.25; stroke-linecap: round"/>
   </g>
   <g id="line2d_8">
    <path clip-path="url(#pc408e9859c)" style="fill: none; stroke: #424242; stroke-width: 2.25; stroke-linecap: round"/>
   </g>
   <g id="line2d_9">
    <path clip-path="url(#pc408e9859c)" style="fill: none; stroke: #424242; stroke-width: 2.25; stroke-linecap: round"/>
   </g>
   <g id="line2d_10">
    <path clip-path="url(#pc408e9859c)" style="fill: none; stroke: #424242; stroke-width: 2.25; stroke-linecap: round"/>
   </g>
   <g id="line2d_11">
    <path clip-path="url(#pc408e9859c)" style="fill: none; stroke: #424242; stroke-width: 2.25; stroke-linecap: round"/>
   </g>
   <g id="line2d_12">
    <path clip-path="url(#pc408e9859c)" style="fill: none; stroke: #424242; stroke-width: 2.25; stroke-linecap: round"/>
   </g>
   <g id="line2d_13">
    <path clip-path="url(#pc408e9859c)" style="fill: none; stroke: #424242; stroke-width: 2.25; stroke-linecap: round"/>
   </g>
   <g id="line2d_14">
    <path clip-path="url(#pc408e9859c)" style="fill: none; stroke: #424242; stroke-width: 2.25; stroke-linecap: round"/>
   </g>
   <g id="line2d_15">
    <path clip-path="url(#pc408e9859c)" style="fill: none; stroke: #424242; stroke-width: 2.25; stroke-linecap: round"/>
   </g>
   <g id="line2d_16">
    <path clip-path="url(#pc408e9859c)" style="fill: none; stroke: #424242; stroke-width: 2.25; stroke-linecap: round"/>
   </g>
   <g id="line2d_17">
    <path clip-path="url(#pc408e9859c)" style="fill: none; stroke: #424242; stroke-width: 2.25; stroke-linecap: round"/>
   </g>
   <g id="line2d_18">
    <path clip-path="url(#pc408e9859c)" style="fill: none; stroke: #424242; stroke-width: 2.25; stroke-linecap: round"/>
   </g>
   <g id="line2d_19">
    <path clip-path="url(#pc408e9859c)" style="fill: none; stroke: #424242; stroke-width: 2.25; stroke-linecap: round"/>
   </g>
   <g id="line2d_20">
    <path clip-path="url(#pc408e9859c)" style="fill: none; stroke: #424242; stroke-width: 2.25; stroke-linecap: round"/>
   </g>
   <g id="line2d_21">
    <path clip-path="url(#pc408e9859c)" style="fill: none; stroke: #424242; stroke-width: 2.25; stroke-linecap: round"/>
   </g>
   <g id="line2d_22">
    <path clip-path="url(#pc408e9859c)" style="fill: none; stroke: #424242; stroke-width: 2.25; stroke-linecap: round"/>
   </g>
   <g id="line2d_23">
    <path clip-path="url(#pc408e9859c)" style="fill: none; stroke: #424242; stroke-width: 2.25; stroke-linecap: round"/>
   </g>
   <g id="line2d_24">
    <path clip-path="url(#pc408e9859c)" style="fill: none; stroke: #424242; stroke-width: 2.25; stroke-linecap: round"/>
   </g>
   <g id="line2d_25">
    <path clip-path="url(#pc408e9859c)" style="fill: none; stroke: #424242; stroke-width: 2.25; stroke-linecap: round"/>
   </g>
   <g id="line2d_26">
    <path clip-path="url(#pc408e9859c)" style="fill: none; stroke: #424242; stroke-width: 2.25; stroke-linecap: round"/>
   </g>
   <g id="line2d_27">
    <path clip-path="url(#pc408e9859c)" style="fill: none; stroke: #424242; stroke-width: 2.25; stroke-linecap: round"/>
   </g>
   <g id="line2d_28">
    <path clip-path="url(#pc408e9859c)" style="fill: none; stroke: #424242; stroke-width: 2.25; stroke-linecap: round"/>
   </g>
   <g id="line2d_29">
    <path clip-path="url(#pc408e9859c)" style="fill: none; stroke: #424242; stroke-width: 2.25; stroke-linecap: round"/>
   </g>
   <g id="line2d_30">
    <path clip-path="url(#pc408e9859c)" style="fill: none; stroke: #424242; stroke-width: 2.25; stroke-linecap: round"/>
   </g>
   <g id="line2d_31">
    <path clip-path="url(#pc408e9859c)" style="fill: none; stroke: #424242; stroke-width: 2.25; stroke-linecap: round"/>
   </g>
   <g id="line2d_32">
    <path clip-path="url(#pc408e9859c)" style="fill: none; stroke: #424242; stroke-width: 2.25; stroke-linecap: round"/>
   </g>
   <g id="line2d_33">
    <path clip-path="url(#pc408e9859c)" style="fill: none; stroke: #424242; stroke-width: 2.25; stroke-linecap: round"/>
   </g>
   <g id="line2d_34">
    <path clip-path="url(#pc408e9859c)" style="fill: none; stroke: #424242; stroke-width: 2.25; stroke-linecap: round"/>
   </g>
   <g id="line2d_35">
    <path clip-path="url(#pc408e9859c)" style="fill: none; stroke: #424242; stroke-width: 2.25; stroke-linecap: round"/>
   </g>
   <g id="line2d_36">
    <path clip-path="url(#pc408e9859c)" style="fill: none; stroke: #424242; stroke-width: 2.25; stroke-linecap: round"/>
   </g>
   <g id="line2d_37">
    <path clip-path="url(#pc408e9859c)" style="fill: none; stroke: #424242; stroke-width: 2.25; stroke-linecap: round"/>
   </g>
   <g id="patch_40">
    <path d="M 48.67875 356.609318 
L 48.67875 24.8475 
" style="fill: none; stroke: #262626; stroke-width: 1.25; stroke-linejoin: miter; stroke-linecap: square"/>
   </g>
   <g id="patch_41">
    <path d="M 1132.786023 356.609318 
L 1132.786023 24.8475 
" style="fill: none; stroke: #262626; stroke-width: 1.25; stroke-linejoin: miter; stroke-linecap: square"/>
   </g>
   <g id="patch_42">
    <path d="M 48.67875 356.609318 
L 1132.786023 356.609318 
" style="fill: none; stroke: #262626; stroke-width: 1.25; stroke-linejoin: miter; stroke-linecap: square"/>
   </g>
   <g id="patch_43">
    <path d="M 48.67875 24.8475 
L 1132.786023 24.8475 
" style="fill: none; stroke: #262626; stroke-width: 1.25; stroke-linejoin: miter; stroke-linecap: square"/>
   </g>
   <g id="text_50">
    <!-- Total Number of Times Each Project Was Listed as a Preference -->
    <g style="fill: #262626" transform="translate(362.949886 18.8475) scale(0.16 -0.16)">
     <defs>
      <path id="ArialMT-61" d="M 2588 409 
Q 2275 144 1986 34 
Q 1697 -75 1366 -75 
Q 819 -75 525 192 
Q 231 459 231 875 
Q 231 1119 342 1320 
Q 453 1522 633 1644 
Q 813 1766 1038 1828 
Q 1203 1872 1538 1913 
Q 2219 1994 2541 2106 
Q 2544 2222 2544 2253 
Q 2544 2597 2384 2738 
Q 2169 2928 1744 2928 
Q 1347 2928 1158 2789 
Q 969 2650 878 2297 
L 328 2372 
Q 403 2725 575 2942 
Q 747 3159 1072 3276 
Q 1397 3394 1825 3394 
Q 2250 3394 2515 3294 
Q 2781 3194 2906 3042 
Q 3031 2891 3081 2659 
Q 3109 2516 3109 2141 
L 3109 1391 
Q 3109 606 3145 398 
Q 3181 191 3288 0 
L 2700 0 
Q 2613 175 2588 409 
z
M 2541 1666 
Q 2234 1541 1622 1453 
Q 1275 1403 1131 1340 
Q 988 1278 909 1158 
Q 831 1038 831 891 
Q 831 666 1001 516 
Q 1172 366 1500 366 
Q 1825 366 2078 508 
Q 2331 650 2450 897 
Q 2541 1088 2541 1459 
L 2541 1666 
z
" transform="scale(0.015625)"/>
      <path id="ArialMT-6c" d="M 409 0 
L 409 4581 
L 972 4581 
L 972 0 
L 409 0 
z
" transform="scale(0.015625)"/>
      <path id="ArialMT-4e" d="M 488 0 
L 488 4581 
L 1109 4581 
L 3516 984 
L 3516 4581 
L 4097 4581 
L 4097 0 
L 3475 0 
L 1069 3600 
L 1069 0 
L 488 0 
z
" transform="scale(0.015625)"/>
      <path id="ArialMT-62" d="M 941 0 
L 419 0 
L 419 4581 
L 981 4581 
L 981 2947 
Q 1338 3394 1891 3394 
Q 2197 3394 2470 3270 
Q 2744 3147 2920 2923 
Q 3097 2700 3197 2384 
Q 3297 2069 3297 1709 
Q 3297 856 2875 390 
Q 2453 -75 1863 -75 
Q 1275 -75 941 416 
L 941 0 
z
M 934 1684 
Q 934 1088 1097 822 
Q 1363 388 1816 388 
Q 2184 388 2453 708 
Q 2722 1028 2722 1663 
Q 2722 2313 2464 2622 
Q 2206 2931 1841 2931 
Q 1472 2931 1203 2611 
Q 934 2291 934 1684 
z
" transform="scale(0.015625)"/>
      <path id="ArialMT-45" d="M 506 0 
L 506 4581 
L 3819 4581 
L 3819 4041 
L 1113 4041 
L 1113 2638 
L 3647 2638 
L 3647 2100 
L 1113 2100 
L 1113 541 
L 3925 541 
L 3925 0 
L 506 0 
z
" transform="scale(0.015625)"/>
      <path id="ArialMT-68" d="M 422 0 
L 422 4581 
L 984 4581 
L 984 2938 
Q 1378 3394 1978 3394 
Q 2347 3394 2619 3248 
Q 2891 3103 3008 2847 
Q 3125 2591 3125 2103 
L 3125 0 
L 2563 0 
L 2563 2103 
Q 2563 2525 2380 2717 
Q 2197 2909 1863 2909 
Q 1613 2909 1392 2779 
Q 1172 2650 1078 2428 
Q 984 2206 984 1816 
L 984 0 
L 422 0 
z
" transform="scale(0.015625)"/>
      <path id="ArialMT-57" d="M 1294 0 
L 78 4581 
L 700 4581 
L 1397 1578 
Q 1509 1106 1591 641 
Q 1766 1375 1797 1488 
L 2669 4581 
L 3400 4581 
L 4056 2263 
Q 4303 1400 4413 641 
Q 4500 1075 4641 1638 
L 5359 4581 
L 5969 4581 
L 4713 0 
L 4128 0 
L 3163 3491 
Q 3041 3928 3019 4028 
Q 2947 3713 2884 3491 
L 1913 0 
L 1294 0 
z
" transform="scale(0.015625)"/>
     </defs>
     <use xlink:href="#ArialMT-54"/>
     <use xlink:href="#ArialMT-6f" transform="translate(49.958984 0)"/>
     <use xlink:href="#ArialMT-74" transform="translate(105.574219 0)"/>
     <use xlink:href="#ArialMT-61" transform="translate(133.357422 0)"/>
     <use xlink:href="#ArialMT-6c" transform="translate(188.972656 0)"/>
     <use xlink:href="#ArialMT-20" transform="translate(211.189453 0)"/>
     <use xlink:href="#ArialMT-4e" transform="translate(238.972656 0)"/>
     <use xlink:href="#ArialMT-75" transform="translate(311.189453 0)"/>
     <use xlink:href="#ArialMT-6d" transform="translate(366.804688 0)"/>
     <use xlink:href="#ArialMT-62" transform="translate(450.105469 0)"/>
     <use xlink:href="#ArialMT-65" transform="translate(505.720703 0)"/>
     <use xlink:href="#ArialMT-72" transform="translate(561.335938 0)"/>
     <use xlink:href="#ArialMT-20" transform="translate(594.636719 0)"/>
     <use xlink:href="#ArialMT-6f" transform="translate(622.419922 0)"/>
     <use xlink:href="#ArialMT-66" transform="translate(678.035156 0)"/>
     <use xlink:href="#ArialMT-20" transform="translate(705.818359 0)"/>
     <use xlink:href="#ArialMT-54" transform="translate(731.851562 0)"/>
     <use xlink:href="#ArialMT-69" transform="translate(789.185547 0)"/>
     <use xlink:href="#ArialMT-6d" transform="translate(811.402344 0)"/>
     <use xlink:href="#ArialMT-65" transform="translate(894.703125 0)"/>
     <use xlink:href="#ArialMT-73" transform="translate(950.318359 0)"/>
     <use xlink:href="#ArialMT-20" transform="translate(1000.318359 0)"/>
     <use xlink:href="#ArialMT-45" transform="translate(1028.101562 0)"/>
     <use xlink:href="#ArialMT-61" transform="translate(1094.800781 0)"/>
     <use xlink:href="#ArialMT-63" transform="translate(1150.416016 0)"/>
     <use xlink:href="#ArialMT-68" transform="translate(1200.416016 0)"/>
     <use xlink:href="#ArialMT-20" transform="translate(1256.03125 0)"/>
     <use xlink:href="#ArialMT-50" transform="translate(1283.814453 0)"/>
     <use xlink:href="#ArialMT-72" transform="translate(1350.513672 0)"/>
     <use xlink:href="#ArialMT-6f" transform="translate(1383.814453 0)"/>
     <use xlink:href="#ArialMT-6a" transform="translate(1439.429688 0)"/>
     <use xlink:href="#ArialMT-65" transform="translate(1461.646484 0)"/>
     <use xlink:href="#ArialMT-63" transform="translate(1517.261719 0)"/>
     <use xlink:href="#ArialMT-74" transform="translate(1567.261719 0)"/>
     <use xlink:href="#ArialMT-20" transform="translate(1595.044922 0)"/>
     <use xlink:href="#ArialMT-57" transform="translate(1622.828125 0)"/>
     <use xlink:href="#ArialMT-61" transform="translate(1713.462891 0)"/>
     <use xlink:href="#ArialMT-73" transform="translate(1769.078125 0)"/>
     <use xlink:href="#ArialMT-20" transform="translate(1819.078125 0)"/>
     <use xlink:href="#ArialMT-4c" transform="translate(1846.861328 0)"/>
     <use xlink:href="#ArialMT-69" transform="translate(1902.476562 0)"/>
     <use xlink:href="#ArialMT-73" transform="translate(1924.693359 0)"/>
     <use xlink:href="#ArialMT-74" transform="translate(1974.693359 0)"/>
     <use xlink:href="#ArialMT-65" transform="translate(2002.476562 0)"/>
     <use xlink:href="#ArialMT-64" transform="translate(2058.091797 0)"/>
     <use xlink:href="#ArialMT-20" transform="translate(2113.707031 0)"/>
     <use xlink:href="#ArialMT-61" transform="translate(2141.490234 0)"/>
     <use xlink:href="#ArialMT-73" transform="translate(2197.105469 0)"/>
     <use xlink:href="#ArialMT-20" transform="translate(2247.105469 0)"/>
     <use xlink:href="#ArialMT-61" transform="translate(2274.888672 0)"/>
     <use xlink:href="#ArialMT-20" transform="translate(2330.503906 0)"/>
     <use xlink:href="#ArialMT-50" transform="translate(2358.287109 0)"/>
     <use xlink:href="#ArialMT-72" transform="translate(2424.986328 0)"/>
     <use xlink:href="#ArialMT-65" transform="translate(2458.287109 0)"/>
     <use xlink:href="#ArialMT-66" transform="translate(2513.902344 0)"/>
     <use xlink:href="#ArialMT-65" transform="translate(2541.685547 0)"/>
     <use xlink:href="#ArialMT-72" transform="translate(2597.300781 0)"/>
     <use xlink:href="#ArialMT-65" transform="translate(2630.601562 0)"/>
     <use xlink:href="#ArialMT-6e" transform="translate(2686.216797 0)"/>
     <use xlink:href="#ArialMT-63" transform="translate(2741.832031 0)"/>
     <use xlink:href="#ArialMT-65" transform="translate(2791.832031 0)"/>
    </g>
   </g>
  </g>
 </g>
 <defs>
  <clipPath id="pc408e9859c">
   <rect x="48.67875" y="24.8475" width="1084.107273" height="331.761818"/>
  </clipPath>
 </defs>
</svg>
